# MagicaVoxel @ Ephtracy

# material
mtllib Chao_Calcada_Sujo.mtl
usemtl palette

# normals
vn -1 0 0
vn 1 0 0
vn 0 0 1
vn 0 0 -1
vn 0 -1 0
vn 0 1 0

# texcoords
vt 0.939453 0.5
vt 0.943359 0.5
vt 0.978516 0.5

# verts
v -20 0 20
v -20 0 -20
v -20 1 20
v -20 1 -20
v 20 0 20
v 20 0 13
v 20 0 11
v 20 0 -20
v 20 1 20
v 20 1 13
v 20 1 11
v 20 1 -20
v -20 0 20
v -20 1 20
v 20 0 20
v 20 1 20
v -20 0 -20
v -20 1 -20
v 20 0 -20
v 20 1 -20
v -20 0 20
v 20 0 20
v -6 0 19
v -4 0 19
v -6 0 17
v -4 0 17
v 12 0 16
v 13 0 16
v 12 0 15
v 13 0 15
v -17 0 14
v -16 0 14
v 13 0 14
v 14 0 14
v -17 0 13
v -16 0 13
v 2 0 13
v 3 0 13
v 13 0 13
v 14 0 13
v 18 0 13
v 20 0 13
v 2 0 12
v 3 0 12
v 18 0 11
v 20 0 11
v -11 0 7
v -10 0 7
v -8 0 7
v -6 0 7
v -11 0 6
v -10 0 6
v -12 0 5
v -8 0 5
v -6 0 5
v 10 0 5
v 14 0 5
v -14 0 3
v -12 0 3
v -8 0 3
v 6 0 3
v 10 0 3
v 14 0 3
v -14 0 1
v -12 0 1
v 5 0 1
v 6 0 1
v 7 0 1
v 10 0 1
v 5 0 -0
v 7 0 -0
v -6 0 -2
v -5 0 -2
v -6 0 -3
v -5 0 -3
v -1 0 -6
v 0 0 -6
v -1 0 -7
v 0 0 -7
v 3 0 -7
v 5 0 -7
v 15 0 -7
v 16 0 -7
v 15 0 -8
v 16 0 -8
v 16 0 -10
v 17 0 -10
v -16 0 -11
v -11 0 -11
v 1 0 -11
v 3 0 -11
v 5 0 -11
v 16 0 -11
v 17 0 -11
v -16 0 -13
v -11 0 -13
v 1 0 -13
v 3 0 -13
v 13 0 -13
v 15 0 -13
v -17 0 -14
v -16 0 -14
v -17 0 -15
v -16 0 -15
v 13 0 -15
v 15 0 -15
v -19 0 -16
v -18 0 -16
v 14 0 -16
v 16 0 -16
v -19 0 -17
v -18 0 -17
v 14 0 -18
v 16 0 -18
v -20 0 -20
v 20 0 -20
v -20 1 20
v 20 1 20
v -6 1 19
v -4 1 19
v -6 1 17
v -4 1 17
v 12 1 16
v 13 1 16
v 12 1 15
v 13 1 15
v -17 1 14
v -16 1 14
v 13 1 14
v 14 1 14
v -17 1 13
v -16 1 13
v 2 1 13
v 3 1 13
v 13 1 13
v 14 1 13
v 18 1 13
v 20 1 13
v 2 1 12
v 3 1 12
v 18 1 11
v 20 1 11
v -11 1 7
v -10 1 7
v -8 1 7
v -6 1 7
v -11 1 6
v -10 1 6
v -12 1 5
v -8 1 5
v -6 1 5
v 10 1 5
v 14 1 5
v -14 1 3
v -12 1 3
v -8 1 3
v 6 1 3
v 10 1 3
v 14 1 3
v -14 1 1
v -12 1 1
v 5 1 1
v 6 1 1
v 7 1 1
v 10 1 1
v 5 1 -0
v 7 1 -0
v -6 1 -2
v -5 1 -2
v -6 1 -3
v -5 1 -3
v -1 1 -6
v 0 1 -6
v -1 1 -7
v 0 1 -7
v 3 1 -7
v 5 1 -7
v 15 1 -7
v 16 1 -7
v 15 1 -8
v 16 1 -8
v 16 1 -10
v 17 1 -10
v -16 1 -11
v -11 1 -11
v 1 1 -11
v 3 1 -11
v 5 1 -11
v 16 1 -11
v 17 1 -11
v -16 1 -13
v -11 1 -13
v 1 1 -13
v 3 1 -13
v 13 1 -13
v 15 1 -13
v -17 1 -14
v -16 1 -14
v -17 1 -15
v -16 1 -15
v 13 1 -15
v 15 1 -15
v -19 1 -16
v -18 1 -16
v 14 1 -16
v 16 1 -16
v -19 1 -17
v -18 1 -17
v 14 1 -18
v 16 1 -18
v -20 1 -20
v 20 1 -20

# faces
f 3/1/1 2/1/1 1/1/1
f 4/1/1 2/1/1 3/1/1
f 5/1/2 6/1/2 9/1/2
f 6/2/2 7/2/2 10/2/2
f 9/1/2 6/1/2 10/1/2
f 7/1/2 8/1/2 11/1/2
f 10/2/2 7/2/2 11/2/2
f 11/1/2 8/1/2 12/1/2
f 15/1/3 14/1/3 13/1/3
f 16/1/3 14/1/3 15/1/3
f 17/1/4 18/1/4 19/1/4
f 19/1/4 18/1/4 20/1/4
f 23/1/5 22/1/5 21/1/5
f 24/1/5 22/1/5 23/1/5
f 25/1/5 23/1/5 21/1/5
f 25/2/5 24/2/5 23/2/5
f 26/1/5 22/1/5 24/1/5
f 26/2/5 24/2/5 25/2/5
f 27/1/5 26/1/5 25/1/5
f 27/1/5 22/1/5 26/1/5
f 28/1/5 22/1/5 27/1/5
f 29/1/5 27/1/5 25/1/5
f 29/3/5 28/3/5 27/3/5
f 30/1/5 22/1/5 28/1/5
f 30/3/5 28/3/5 29/3/5
f 31/1/5 25/1/5 21/1/5
f 31/1/5 29/1/5 25/1/5
f 31/1/5 30/1/5 29/1/5
f 32/1/5 30/1/5 31/1/5
f 33/1/5 22/1/5 30/1/5
f 33/1/5 30/1/5 32/1/5
f 34/1/5 22/1/5 33/1/5
f 35/2/5 32/2/5 31/2/5
f 35/1/5 31/1/5 21/1/5
f 36/1/5 33/1/5 32/1/5
f 36/2/5 32/2/5 35/2/5
f 37/1/5 33/1/5 36/1/5
f 38/1/5 33/1/5 37/1/5
f 39/2/5 34/2/5 33/2/5
f 39/1/5 33/1/5 38/1/5
f 40/1/5 22/1/5 34/1/5
f 40/2/5 34/2/5 39/2/5
f 41/1/5 22/1/5 40/1/5
f 42/1/5 22/1/5 41/1/5
f 43/2/5 38/2/5 37/2/5
f 43/1/5 36/1/5 35/1/5
f 43/1/5 37/1/5 36/1/5
f 44/1/5 39/1/5 38/1/5
f 44/2/5 38/2/5 43/2/5
f 44/1/5 41/1/5 40/1/5
f 44/1/5 40/1/5 39/1/5
f 45/2/5 42/2/5 41/2/5
f 45/1/5 41/1/5 44/1/5
f 45/1/5 44/1/5 43/1/5
f 46/2/5 42/2/5 45/2/5
f 47/1/5 43/1/5 35/1/5
f 47/1/5 45/1/5 43/1/5
f 47/1/5 46/1/5 45/1/5
f 48/1/5 46/1/5 47/1/5
f 49/1/5 46/1/5 48/1/5
f 50/1/5 46/1/5 49/1/5
f 51/1/5 47/1/5 35/1/5
f 51/3/5 48/3/5 47/3/5
f 52/1/5 49/1/5 48/1/5
f 52/3/5 48/3/5 51/3/5
f 53/1/5 51/1/5 35/1/5
f 53/1/5 52/1/5 51/1/5
f 54/2/5 50/2/5 49/2/5
f 54/1/5 52/1/5 53/1/5
f 54/1/5 49/1/5 52/1/5
f 55/1/5 46/1/5 50/1/5
f 55/2/5 50/2/5 54/2/5
f 56/1/5 46/1/5 55/1/5
f 57/1/5 46/1/5 56/1/5
f 58/1/5 53/1/5 35/1/5
f 59/2/5 54/2/5 53/2/5
f 59/1/5 53/1/5 58/1/5
f 60/1/5 55/1/5 54/1/5
f 60/2/5 54/2/5 59/2/5
f 60/1/5 56/1/5 55/1/5
f 61/1/5 56/1/5 60/1/5
f 62/2/5 57/2/5 56/2/5
f 62/1/5 56/1/5 61/1/5
f 63/1/5 46/1/5 57/1/5
f 63/2/5 57/2/5 62/2/5
f 64/1/5 58/1/5 35/1/5
f 64/2/5 59/2/5 58/2/5
f 65/1/5 61/1/5 60/1/5
f 65/2/5 59/2/5 64/2/5
f 65/1/5 60/1/5 59/1/5
f 66/1/5 61/1/5 65/1/5
f 67/2/5 62/2/5 61/2/5
f 67/1/5 61/1/5 66/1/5
f 68/2/5 62/2/5 67/2/5
f 69/1/5 63/1/5 62/1/5
f 69/2/5 62/2/5 68/2/5
f 70/1/5 66/1/5 65/1/5
f 70/3/5 68/3/5 67/3/5
f 70/1/5 65/1/5 64/1/5
f 70/3/5 67/3/5 66/3/5
f 71/1/5 69/1/5 68/1/5
f 71/3/5 68/3/5 70/3/5
f 72/1/5 70/1/5 64/1/5
f 72/1/5 71/1/5 70/1/5
f 73/1/5 71/1/5 72/1/5
f 74/1/5 72/1/5 64/1/5
f 74/2/5 73/2/5 72/2/5
f 75/1/5 71/1/5 73/1/5
f 75/2/5 73/2/5 74/2/5
f 76/1/5 75/1/5 74/1/5
f 76/1/5 71/1/5 75/1/5
f 77/1/5 71/1/5 76/1/5
f 78/1/5 76/1/5 74/1/5
f 78/3/5 77/3/5 76/3/5
f 79/1/5 71/1/5 77/1/5
f 79/3/5 77/3/5 78/3/5
f 80/1/5 71/1/5 79/1/5
f 81/1/5 71/1/5 80/1/5
f 82/1/5 46/1/5 63/1/5
f 82/1/5 71/1/5 81/1/5
f 82/1/5 63/1/5 69/1/5
f 82/1/5 69/1/5 71/1/5
f 83/1/5 46/1/5 82/1/5
f 84/1/5 82/1/5 81/1/5
f 84/2/5 83/2/5 82/2/5
f 85/1/5 46/1/5 83/1/5
f 85/2/5 83/2/5 84/2/5
f 86/1/5 85/1/5 84/1/5
f 86/1/5 46/1/5 85/1/5
f 87/1/5 46/1/5 86/1/5
f 88/1/5 80/1/5 79/1/5
f 88/1/5 79/1/5 78/1/5
f 88/1/5 64/1/5 35/1/5
f 88/1/5 74/1/5 64/1/5
f 88/1/5 78/1/5 74/1/5
f 89/1/5 80/1/5 88/1/5
f 90/1/5 80/1/5 89/1/5
f 91/2/5 81/2/5 80/2/5
f 91/1/5 80/1/5 90/1/5
f 92/1/5 86/1/5 84/1/5
f 92/2/5 81/2/5 91/2/5
f 92/1/5 84/1/5 81/1/5
f 93/3/5 87/3/5 86/3/5
f 93/1/5 86/1/5 92/1/5
f 94/1/5 46/1/5 87/1/5
f 94/3/5 87/3/5 93/3/5
f 95/2/5 89/2/5 88/2/5
f 95/1/5 88/1/5 35/1/5
f 96/1/5 90/1/5 89/1/5
f 96/2/5 89/2/5 95/2/5
f 97/2/5 91/2/5 90/2/5
f 97/1/5 90/1/5 96/1/5
f 98/1/5 93/1/5 92/1/5
f 98/2/5 91/2/5 97/2/5
f 98/1/5 92/1/5 91/1/5
f 98/1/5 94/1/5 93/1/5
f 99/1/5 94/1/5 98/1/5
f 100/1/5 94/1/5 99/1/5
f 101/1/5 35/1/5 21/1/5
f 101/1/5 95/1/5 35/1/5
f 101/1/5 97/1/5 96/1/5
f 101/1/5 99/1/5 98/1/5
f 101/1/5 98/1/5 97/1/5
f 101/1/5 96/1/5 95/1/5
f 102/1/5 99/1/5 101/1/5
f 103/1/5 101/1/5 21/1/5
f 103/3/5 102/3/5 101/3/5
f 104/1/5 99/1/5 102/1/5
f 104/3/5 102/3/5 103/3/5
f 105/2/5 100/2/5 99/2/5
f 105/1/5 99/1/5 104/1/5
f 106/1/5 94/1/5 100/1/5
f 106/2/5 100/2/5 105/2/5
f 107/1/5 105/1/5 104/1/5
f 107/1/5 104/1/5 103/1/5
f 107/1/5 106/1/5 105/1/5
f 107/1/5 103/1/5 21/1/5
f 108/1/5 106/1/5 107/1/5
f 109/1/5 106/1/5 108/1/5
f 110/1/5 94/1/5 106/1/5
f 110/1/5 106/1/5 109/1/5
f 111/1/5 107/1/5 21/1/5
f 111/2/5 108/2/5 107/2/5
f 112/1/5 109/1/5 108/1/5
f 112/2/5 108/2/5 111/2/5
f 113/2/5 110/2/5 109/2/5
f 113/1/5 109/1/5 112/1/5
f 113/1/5 112/1/5 111/1/5
f 114/1/5 94/1/5 110/1/5
f 114/2/5 110/2/5 113/2/5
f 115/1/5 111/1/5 21/1/5
f 115/1/5 113/1/5 111/1/5
f 115/1/5 114/1/5 113/1/5
f 116/1/5 94/1/5 114/1/5
f 116/1/5 114/1/5 115/1/5
f 116/1/5 46/1/5 94/1/5
f 117/1/6 118/1/6 119/1/6
f 119/1/6 118/1/6 120/1/6
f 117/1/6 119/1/6 121/1/6
f 119/2/6 120/2/6 121/2/6
f 120/1/6 118/1/6 122/1/6
f 121/2/6 120/2/6 122/2/6
f 121/1/6 122/1/6 123/1/6
f 122/1/6 118/1/6 123/1/6
f 123/1/6 118/1/6 124/1/6
f 121/1/6 123/1/6 125/1/6
f 123/3/6 124/3/6 125/3/6
f 124/1/6 118/1/6 126/1/6
f 125/3/6 124/3/6 126/3/6
f 117/1/6 121/1/6 127/1/6
f 121/1/6 125/1/6 127/1/6
f 125/1/6 126/1/6 127/1/6
f 127/1/6 126/1/6 128/1/6
f 126/1/6 118/1/6 129/1/6
f 128/1/6 126/1/6 129/1/6
f 129/1/6 118/1/6 130/1/6
f 127/2/6 128/2/6 131/2/6
f 117/1/6 127/1/6 131/1/6
f 128/1/6 129/1/6 132/1/6
f 131/2/6 128/2/6 132/2/6
f 132/1/6 129/1/6 133/1/6
f 133/1/6 129/1/6 134/1/6
f 129/2/6 130/2/6 135/2/6
f 134/1/6 129/1/6 135/1/6
f 130/1/6 118/1/6 136/1/6
f 135/2/6 130/2/6 136/2/6
f 136/1/6 118/1/6 137/1/6
f 137/1/6 118/1/6 138/1/6
f 133/2/6 134/2/6 139/2/6
f 131/1/6 132/1/6 139/1/6
f 132/1/6 133/1/6 139/1/6
f 134/1/6 135/1/6 140/1/6
f 139/2/6 134/2/6 140/2/6
f 136/1/6 137/1/6 140/1/6
f 135/1/6 136/1/6 140/1/6
f 137/2/6 138/2/6 141/2/6
f 140/1/6 137/1/6 141/1/6
f 139/1/6 140/1/6 141/1/6
f 141/2/6 138/2/6 142/2/6
f 131/1/6 139/1/6 143/1/6
f 139/1/6 141/1/6 143/1/6
f 141/1/6 142/1/6 143/1/6
f 143/1/6 142/1/6 144/1/6
f 144/1/6 142/1/6 145/1/6
f 145/1/6 142/1/6 146/1/6
f 131/1/6 143/1/6 147/1/6
f 143/3/6 144/3/6 147/3/6
f 144/1/6 145/1/6 148/1/6
f 147/3/6 144/3/6 148/3/6
f 131/1/6 147/1/6 149/1/6
f 147/1/6 148/1/6 149/1/6
f 145/2/6 146/2/6 150/2/6
f 149/1/6 148/1/6 150/1/6
f 148/1/6 145/1/6 150/1/6
f 146/1/6 142/1/6 151/1/6
f 150/2/6 146/2/6 151/2/6
f 151/1/6 142/1/6 152/1/6
f 152/1/6 142/1/6 153/1/6
f 131/1/6 149/1/6 154/1/6
f 149/2/6 150/2/6 155/2/6
f 154/1/6 149/1/6 155/1/6
f 150/1/6 151/1/6 156/1/6
f 155/2/6 150/2/6 156/2/6
f 151/1/6 152/1/6 156/1/6
f 156/1/6 152/1/6 157/1/6
f 152/2/6 153/2/6 158/2/6
f 157/1/6 152/1/6 158/1/6
f 153/1/6 142/1/6 159/1/6
f 158/2/6 153/2/6 159/2/6
f 131/1/6 154/1/6 160/1/6
f 154/2/6 155/2/6 160/2/6
f 156/1/6 157/1/6 161/1/6
f 160/2/6 155/2/6 161/2/6
f 155/1/6 156/1/6 161/1/6
f 161/1/6 157/1/6 162/1/6
f 157/2/6 158/2/6 163/2/6
f 162/1/6 157/1/6 163/1/6
f 163/2/6 158/2/6 164/2/6
f 158/1/6 159/1/6 165/1/6
f 164/2/6 158/2/6 165/2/6
f 161/1/6 162/1/6 166/1/6
f 163/3/6 164/3/6 166/3/6
f 160/1/6 161/1/6 166/1/6
f 162/3/6 163/3/6 166/3/6
f 164/1/6 165/1/6 167/1/6
f 166/3/6 164/3/6 167/3/6
f 160/1/6 166/1/6 168/1/6
f 166/1/6 167/1/6 168/1/6
f 168/1/6 167/1/6 169/1/6
f 160/1/6 168/1/6 170/1/6
f 168/2/6 169/2/6 170/2/6
f 169/1/6 167/1/6 171/1/6
f 170/2/6 169/2/6 171/2/6
f 170/1/6 171/1/6 172/1/6
f 171/1/6 167/1/6 172/1/6
f 172/1/6 167/1/6 173/1/6
f 170/1/6 172/1/6 174/1/6
f 172/3/6 173/3/6 174/3/6
f 173/1/6 167/1/6 175/1/6
f 174/3/6 173/3/6 175/3/6
f 175/1/6 167/1/6 176/1/6
f 176/1/6 167/1/6 177/1/6
f 159/1/6 142/1/6 178/1/6
f 177/1/6 167/1/6 178/1/6
f 165/1/6 159/1/6 178/1/6
f 167/1/6 165/1/6 178/1/6
f 178/1/6 142/1/6 179/1/6
f 177/1/6 178/1/6 180/1/6
f 178/2/6 179/2/6 180/2/6
f 179/1/6 142/1/6 181/1/6
f 180/2/6 179/2/6 181/2/6
f 180/1/6 181/1/6 182/1/6
f 181/1/6 142/1/6 182/1/6
f 182/1/6 142/1/6 183/1/6
f 175/1/6 176/1/6 184/1/6
f 174/1/6 175/1/6 184/1/6
f 131/1/6 160/1/6 184/1/6
f 160/1/6 170/1/6 184/1/6
f 170/1/6 174/1/6 184/1/6
f 184/1/6 176/1/6 185/1/6
f 185/1/6 176/1/6 186/1/6
f 176/2/6 177/2/6 187/2/6
f 186/1/6 176/1/6 187/1/6
f 180/1/6 182/1/6 188/1/6
f 187/2/6 177/2/6 188/2/6
f 177/1/6 180/1/6 188/1/6
f 182/3/6 183/3/6 189/3/6
f 188/1/6 182/1/6 189/1/6
f 183/1/6 142/1/6 190/1/6
f 189/3/6 183/3/6 190/3/6
f 184/2/6 185/2/6 191/2/6
f 131/1/6 184/1/6 191/1/6
f 185/1/6 186/1/6 192/1/6
f 191/2/6 185/2/6 192/2/6
f 186/2/6 187/2/6 193/2/6
f 192/1/6 186/1/6 193/1/6
f 188/1/6 189/1/6 194/1/6
f 193/2/6 187/2/6 194/2/6
f 187/1/6 188/1/6 194/1/6
f 189/1/6 190/1/6 194/1/6
f 194/1/6 190/1/6 195/1/6
f 195/1/6 190/1/6 196/1/6
f 117/1/6 131/1/6 197/1/6
f 131/1/6 191/1/6 197/1/6
f 192/1/6 193/1/6 197/1/6
f 194/1/6 195/1/6 197/1/6
f 193/1/6 194/1/6 197/1/6
f 191/1/6 192/1/6 197/1/6
f 197/1/6 195/1/6 198/1/6
f 117/1/6 197/1/6 199/1/6
f 197/3/6 198/3/6 199/3/6
f 198/1/6 195/1/6 200/1/6
f 199/3/6 198/3/6 200/3/6
f 195/2/6 196/2/6 201/2/6
f 200/1/6 195/1/6 201/1/6
f 196/1/6 190/1/6 202/1/6
f 201/2/6 196/2/6 202/2/6
f 200/1/6 201/1/6 203/1/6
f 199/1/6 200/1/6 203/1/6
f 201/1/6 202/1/6 203/1/6
f 117/1/6 199/1/6 203/1/6
f 203/1/6 202/1/6 204/1/6
f 204/1/6 202/1/6 205/1/6
f 202/1/6 190/1/6 206/1/6
f 205/1/6 202/1/6 206/1/6
f 117/1/6 203/1/6 207/1/6
f 203/2/6 204/2/6 207/2/6
f 204/1/6 205/1/6 208/1/6
f 207/2/6 204/2/6 208/2/6
f 205/2/6 206/2/6 209/2/6
f 208/1/6 205/1/6 209/1/6
f 207/1/6 208/1/6 209/1/6
f 206/1/6 190/1/6 210/1/6
f 209/2/6 206/2/6 210/2/6
f 117/1/6 207/1/6 211/1/6
f 207/1/6 209/1/6 211/1/6
f 209/1/6 210/1/6 211/1/6
f 210/1/6 190/1/6 212/1/6
f 211/1/6 210/1/6 212/1/6
f 190/1/6 142/1/6 212/1/6
