# MagicaVoxel @ Ephtracy

# material
mtllib Parede_Pilar.mtl
usemtl palette

# normals
vn -1 0 0
vn 1 0 0
vn 0 0 1
vn 0 0 -1
vn 0 -1 0
vn 0 1 0

# texcoords
vt 0.349609 0.5
vt 0.408203 0.5
vt 0.412109 0.5
vt 0.416016 0.5
vt 0.689453 0.5
vt 0.693359 0.5
vt 0.697266 0.5
vt 0.970703 0.5
vt 0.994141 0.5

# verts
v -20 0 20
v -20 0 -20
v -20 1 20
v -20 1 -20
v -4 1 4
v -4 1 -4
v -4 5 4
v -4 5 -4
v -4 6 4
v -4 6 -4
v -4 61 4
v -4 61 -4
v -4 63 -1
v -4 63 -2
v -4 64 4
v -4 64 -1
v -4 64 -2
v -4 64 -4
v -4 65 -1
v -4 65 -2
v -4 66 -1
v -4 66 -2
v -4 67 -1
v -4 67 -2
v -4 71 4
v -4 71 -4
v 4 1 4
v 4 1 -4
v 4 5 4
v 4 5 -4
v 4 6 4
v 4 6 -4
v 4 61 4
v 4 61 -4
v 4 64 4
v 4 64 -4
v 4 67 1
v 4 67 -0
v 4 68 1
v 4 68 -0
v 4 71 4
v 4 71 -4
v 20 0 20
v 20 0 -20
v 20 1 20
v 20 1 -20
v -20 0 20
v -20 1 20
v 20 0 20
v 20 1 20
v -4 1 4
v -4 5 4
v -4 6 4
v -4 61 4
v -4 64 4
v -4 71 4
v -1 68 4
v -1 69 4
v 0 68 4
v 0 69 4
v 2 65 4
v 2 66 4
v 3 65 4
v 3 66 4
v 4 1 4
v 4 5 4
v 4 6 4
v 4 61 4
v 4 64 4
v 4 71 4
v -4 1 -4
v -4 5 -4
v -4 6 -4
v -4 61 -4
v -4 64 -4
v -4 71 -4
v -2 68 -4
v -2 69 -4
v -1 68 -4
v -1 69 -4
v 4 1 -4
v 4 5 -4
v 4 6 -4
v 4 61 -4
v 4 64 -4
v 4 71 -4
v -20 0 -20
v -20 1 -20
v 20 0 -20
v 20 1 -20
v -20 0 20
v 20 0 20
v -19 0 19
v -18 0 19
v 19 0 19
v -19 0 -19
v -18 0 -19
v 19 0 -19
v -20 0 -20
v 20 0 -20
v -20 1 20
v 20 1 20
v -19 1 19
v -18 1 19
v 19 1 19
v -4 1 4
v 4 1 4
v -4 1 -4
v 4 1 -4
v -19 1 -19
v -18 1 -19
v 19 1 -19
v -20 1 -20
v 20 1 -20
v -4 71 4
v 4 71 4
v -3 71 3
v 3 71 3
v -3 71 -3
v 3 71 -3
v -4 71 -4
v 4 71 -4

# faces
f 3/7/1 2/7/1 1/7/1
f 4/7/1 2/7/1 3/7/1
f 7/2/1 6/2/1 5/2/1
f 8/2/1 6/2/1 7/2/1
f 9/4/1 8/4/1 7/4/1
f 10/4/1 8/4/1 9/4/1
f 11/3/1 10/3/1 9/3/1
f 12/3/1 10/3/1 11/3/1
f 13/4/1 12/4/1 11/4/1
f 14/4/1 12/4/1 13/4/1
f 15/4/1 13/4/1 11/4/1
f 16/1/1 14/1/1 13/1/1
f 16/4/1 13/4/1 15/4/1
f 17/4/1 12/4/1 14/4/1
f 17/1/1 14/1/1 16/1/1
f 18/4/1 12/4/1 17/4/1
f 19/3/1 16/3/1 15/3/1
f 19/1/1 17/1/1 16/1/1
f 20/3/1 18/3/1 17/3/1
f 20/1/1 17/1/1 19/1/1
f 21/3/1 19/3/1 15/3/1
f 21/3/1 20/3/1 19/3/1
f 22/3/1 18/3/1 20/3/1
f 22/3/1 20/3/1 21/3/1
f 23/3/1 21/3/1 15/3/1
f 23/1/1 22/1/1 21/1/1
f 24/3/1 18/3/1 22/3/1
f 24/1/1 22/1/1 23/1/1
f 25/3/1 23/3/1 15/3/1
f 25/3/1 24/3/1 23/3/1
f 26/3/1 18/3/1 24/3/1
f 26/3/1 24/3/1 25/3/1
f 27/2/2 28/2/2 29/2/2
f 29/2/2 28/2/2 30/2/2
f 29/4/2 30/4/2 31/4/2
f 31/4/2 30/4/2 32/4/2
f 31/3/2 32/3/2 33/3/2
f 33/3/2 32/3/2 34/3/2
f 33/4/2 34/4/2 35/4/2
f 35/4/2 34/4/2 36/4/2
f 35/3/2 36/3/2 37/3/2
f 37/3/2 36/3/2 38/3/2
f 35/3/2 37/3/2 39/3/2
f 37/1/2 38/1/2 39/1/2
f 38/3/2 36/3/2 40/3/2
f 39/1/2 38/1/2 40/1/2
f 35/3/2 39/3/2 41/3/2
f 39/3/2 40/3/2 41/3/2
f 40/3/2 36/3/2 42/3/2
f 41/3/2 40/3/2 42/3/2
f 43/7/2 44/7/2 45/7/2
f 45/7/2 44/7/2 46/7/2
f 49/7/3 48/7/3 47/7/3
f 50/7/3 48/7/3 49/7/3
f 57/3/3 56/3/3 55/3/3
f 58/3/3 56/3/3 57/3/3
f 59/3/3 57/3/3 55/3/3
f 59/1/3 58/1/3 57/1/3
f 60/3/3 56/3/3 58/3/3
f 60/1/3 58/1/3 59/1/3
f 61/3/3 59/3/3 55/3/3
f 61/3/3 60/3/3 59/3/3
f 62/3/3 60/3/3 61/3/3
f 63/3/3 61/3/3 55/3/3
f 63/1/3 62/1/3 61/1/3
f 64/3/3 60/3/3 62/3/3
f 64/1/3 62/1/3 63/1/3
f 65/2/3 52/2/3 51/2/3
f 66/4/3 53/4/3 52/4/3
f 66/2/3 52/2/3 65/2/3
f 67/3/3 54/3/3 53/3/3
f 67/4/3 53/4/3 66/4/3
f 68/4/3 55/4/3 54/4/3
f 68/3/3 54/3/3 67/3/3
f 69/3/3 63/3/3 55/3/3
f 69/4/3 55/4/3 68/4/3
f 69/3/3 64/3/3 63/3/3
f 70/3/3 60/3/3 64/3/3
f 70/3/3 64/3/3 69/3/3
f 70/3/3 56/3/3 60/3/3
f 75/3/4 76/3/4 77/3/4
f 77/3/4 76/3/4 78/3/4
f 75/3/4 77/3/4 79/3/4
f 77/1/4 78/1/4 79/1/4
f 78/3/4 76/3/4 80/3/4
f 79/1/4 78/1/4 80/1/4
f 71/2/4 72/2/4 81/2/4
f 72/4/4 73/4/4 82/4/4
f 81/2/4 72/2/4 82/2/4
f 73/3/4 74/3/4 83/3/4
f 82/4/4 73/4/4 83/4/4
f 74/4/4 75/4/4 84/4/4
f 83/3/4 74/3/4 84/3/4
f 75/3/4 79/3/4 85/3/4
f 84/4/4 75/4/4 85/4/4
f 79/3/4 80/3/4 85/3/4
f 80/3/4 76/3/4 86/3/4
f 85/3/4 80/3/4 86/3/4
f 87/7/4 88/7/4 89/7/4
f 89/7/4 88/7/4 90/7/4
f 93/7/5 92/7/5 91/7/5
f 94/7/5 92/7/5 93/7/5
f 95/7/5 92/7/5 94/7/5
f 96/7/5 93/7/5 91/7/5
f 96/6/5 94/6/5 93/6/5
f 97/5/5 95/5/5 94/5/5
f 97/6/5 94/6/5 96/6/5
f 98/7/5 92/7/5 95/7/5
f 98/5/5 95/5/5 97/5/5
f 99/7/5 97/7/5 96/7/5
f 99/7/5 96/7/5 91/7/5
f 99/7/5 98/7/5 97/7/5
f 100/7/5 92/7/5 98/7/5
f 100/7/5 98/7/5 99/7/5
f 101/7/6 102/7/6 103/7/6
f 103/7/6 102/7/6 104/7/6
f 104/7/6 102/7/6 105/7/6
f 104/5/6 105/5/6 106/5/6
f 106/5/6 105/5/6 107/5/6
f 104/5/6 106/5/6 108/5/6
f 107/5/6 105/5/6 109/5/6
f 101/7/6 103/7/6 110/7/6
f 103/6/6 104/6/6 110/6/6
f 108/5/6 109/5/6 111/5/6
f 110/6/6 104/6/6 111/6/6
f 104/5/6 108/5/6 111/5/6
f 109/5/6 105/5/6 112/5/6
f 111/5/6 109/5/6 112/5/6
f 105/7/6 102/7/6 112/7/6
f 101/7/6 110/7/6 113/7/6
f 110/7/6 111/7/6 113/7/6
f 111/7/6 112/7/6 113/7/6
f 112/7/6 102/7/6 114/7/6
f 113/7/6 112/7/6 114/7/6
f 115/3/6 116/3/6 117/3/6
f 117/3/6 116/3/6 118/3/6
f 115/3/6 117/3/6 119/3/6
f 117/9/6 118/9/6 119/9/6
f 118/3/6 116/3/6 120/3/6
f 119/9/6 118/9/6 120/9/6
f 115/3/6 119/3/6 121/3/6
f 119/3/6 120/3/6 121/3/6
f 120/3/6 116/3/6 122/3/6
f 121/3/6 120/3/6 122/3/6
