# MagicaVoxel @ Ephtracy

# material
mtllib Parede_T_1.mtl
usemtl palette

# normals
vn -1 0 0
vn 1 0 0
vn 0 0 1
vn 0 0 -1
vn 0 -1 0
vn 0 1 0

# texcoords
vt 0.349609 0.5
vt 0.408203 0.5
vt 0.412109 0.5
vt 0.416016 0.5
vt 0.689453 0.5
vt 0.693359 0.5
vt 0.697266 0.5
vt 0.970703 0.5
vt 0.994141 0.5

# verts
v -20 0 20
v -20 0 -20
v -20 1 20
v -20 1 4
v -20 1 3
v -20 1 -3
v -20 1 -4
v -20 1 -20
v -20 6 4
v -20 6 3
v -20 6 -3
v -20 6 -4
v -20 7 4
v -20 7 3
v -20 61 4
v -20 61 3
v -20 61 -3
v -20 61 -4
v -20 64 4
v -20 64 3
v -20 64 -3
v -20 64 -4
v -20 67 4
v -20 67 3
v -20 69 4
v -20 69 3
v -20 71 4
v -20 71 3
v -20 71 -3
v -20 71 -4
v -4 1 20
v -4 1 19
v -4 1 4
v -4 1 -4
v -4 1 -19
v -4 1 -20
v -4 6 20
v -4 6 4
v -4 6 -4
v -4 6 -20
v -4 7 20
v -4 7 4
v -4 61 20
v -4 61 4
v -4 61 -4
v -4 61 -20
v -4 63 7
v -4 63 6
v -4 64 20
v -4 64 7
v -4 64 6
v -4 64 4
v -4 64 -4
v -4 64 -20
v -4 65 7
v -4 65 6
v -4 66 -7
v -4 66 -8
v -4 66 -15
v -4 66 -16
v -4 67 20
v -4 67 19
v -4 67 10
v -4 67 9
v -4 67 -7
v -4 67 -8
v -4 67 -11
v -4 67 -12
v -4 67 -15
v -4 67 -16
v -4 68 20
v -4 68 19
v -4 68 10
v -4 68 9
v -4 69 15
v -4 69 14
v -4 69 10
v -4 69 9
v -4 69 -10
v -4 69 -11
v -4 69 -12
v -4 69 -18
v -4 69 -19
v -4 70 14
v -4 70 11
v -4 70 -9
v -4 70 -10
v -4 70 -18
v -4 70 -19
v -4 71 20
v -4 71 15
v -4 71 11
v -4 71 10
v -4 71 9
v -4 71 4
v -4 71 -4
v -4 71 -9
v -4 71 -11
v -4 71 -20
v 4 1 20
v 4 1 -20
v 4 71 20
v 4 71 -20
v 20 0 20
v 20 0 -20
v 20 1 20
v 20 1 -20
v -20 0 20
v -20 1 20
v -4 1 20
v -4 6 20
v -4 7 20
v -4 61 20
v -4 64 20
v -4 67 20
v -4 68 20
v -4 71 20
v -3 0 20
v -3 1 20
v -3 6 20
v -3 7 20
v -3 61 20
v -3 64 20
v -3 67 20
v -3 68 20
v -3 71 20
v 4 1 20
v 4 71 20
v 20 0 20
v 20 1 20
v -20 1 4
v -20 6 4
v -20 7 4
v -20 61 4
v -20 64 4
v -20 67 4
v -20 69 4
v -20 71 4
v -19 1 4
v -19 67 4
v -19 69 4
v -15 70 4
v -15 71 4
v -14 68 4
v -14 70 4
v -13 68 4
v -13 71 4
v -8 66 4
v -8 67 4
v -7 66 4
v -7 67 4
v -4 1 4
v -4 6 4
v -4 7 4
v -4 61 4
v -4 64 4
v -4 71 4
v -20 1 -4
v -20 6 -4
v -20 61 -4
v -20 64 -4
v -20 71 -4
v -19 1 -4
v -16 68 -4
v -16 69 -4
v -15 68 -4
v -15 69 -4
v -15 70 -4
v -15 71 -4
v -14 69 -4
v -14 70 -4
v -13 69 -4
v -13 71 -4
v -12 66 -4
v -12 67 -4
v -12 69 -4
v -12 71 -4
v -11 66 -4
v -11 67 -4
v -11 69 -4
v -11 71 -4
v -7 68 -4
v -7 69 -4
v -6 68 -4
v -6 69 -4
v -4 1 -4
v -4 6 -4
v -4 61 -4
v -4 64 -4
v -4 71 -4
v -20 0 -20
v -20 1 -20
v -4 1 -20
v -4 6 -20
v -4 61 -20
v -4 64 -20
v -4 71 -20
v -3 0 -20
v -3 1 -20
v -3 6 -20
v -3 61 -20
v -3 64 -20
v -3 71 -20
v 4 1 -20
v 4 71 -20
v 20 0 -20
v 20 1 -20
v -20 0 20
v -3 0 20
v 20 0 20
v -19 0 19
v -3 0 19
v -2 0 19
v -1 0 19
v 1 0 19
v 4 0 19
v -19 0 1
v -2 0 1
v -1 0 1
v 1 0 1
v 4 0 1
v -19 0 -1
v -2 0 -1
v -1 0 -1
v 1 0 -1
v 4 0 -1
v -19 0 -19
v -3 0 -19
v -2 0 -19
v -1 0 -19
v 1 0 -19
v 4 0 -19
v -20 0 -20
v -3 0 -20
v 20 0 -20
v -20 1 20
v -4 1 20
v 4 1 20
v 20 1 20
v -19 1 19
v -4 1 19
v -20 1 4
v -19 1 4
v -4 1 4
v -20 1 -4
v -19 1 -4
v -4 1 -4
v -19 1 -19
v -4 1 -19
v -20 1 -20
v -4 1 -20
v 4 1 -20
v 20 1 -20
v -4 71 20
v -3 71 20
v 4 71 20
v -4 71 15
v -3 71 15
v -4 71 11
v -3 71 11
v -4 71 10
v -3 71 10
v -4 71 9
v -3 71 9
v -20 71 4
v -15 71 4
v -13 71 4
v -4 71 4
v -3 71 4
v -20 71 3
v -15 71 3
v -13 71 3
v -4 71 3
v -20 71 -3
v -15 71 -3
v -13 71 -3
v -12 71 -3
v -11 71 -3
v -4 71 -3
v -20 71 -4
v -15 71 -4
v -13 71 -4
v -12 71 -4
v -11 71 -4
v -4 71 -4
v -3 71 -4
v -4 71 -9
v -3 71 -9
v -4 71 -11
v -3 71 -11
v -4 71 -20
v -3 71 -20
v 4 71 -20

# faces
f 3/7/1 2/7/1 1/7/1
f 4/7/1 2/7/1 3/7/1
f 5/7/1 2/7/1 4/7/1
f 6/7/1 2/7/1 5/7/1
f 7/7/1 2/7/1 6/7/1
f 8/7/1 2/7/1 7/7/1
f 9/2/1 5/2/1 4/2/1
f 10/9/1 6/9/1 5/9/1
f 10/2/1 5/2/1 9/2/1
f 11/2/1 7/2/1 6/2/1
f 11/9/1 6/9/1 10/9/1
f 12/2/1 7/2/1 11/2/1
f 13/4/1 10/4/1 9/4/1
f 14/9/1 11/9/1 10/9/1
f 14/4/1 10/4/1 13/4/1
f 15/3/1 14/3/1 13/3/1
f 16/9/1 11/9/1 14/9/1
f 16/3/1 14/3/1 15/3/1
f 17/3/1 12/3/1 11/3/1
f 17/9/1 11/9/1 16/9/1
f 18/3/1 12/3/1 17/3/1
f 19/4/1 16/4/1 15/4/1
f 20/9/1 17/9/1 16/9/1
f 20/4/1 16/4/1 19/4/1
f 21/4/1 18/4/1 17/4/1
f 21/9/1 17/9/1 20/9/1
f 22/4/1 18/4/1 21/4/1
f 23/3/1 20/3/1 19/3/1
f 24/9/1 21/9/1 20/9/1
f 24/3/1 20/3/1 23/3/1
f 25/1/1 24/1/1 23/1/1
f 26/9/1 21/9/1 24/9/1
f 26/1/1 24/1/1 25/1/1
f 27/3/1 26/3/1 25/3/1
f 28/9/1 21/9/1 26/9/1
f 28/3/1 26/3/1 27/3/1
f 29/3/1 22/3/1 21/3/1
f 29/9/1 21/9/1 28/9/1
f 30/3/1 22/3/1 29/3/1
f 37/2/1 32/2/1 31/2/1
f 37/2/1 33/2/1 32/2/1
f 38/2/1 33/2/1 37/2/1
f 39/2/1 36/2/1 35/2/1
f 39/2/1 35/2/1 34/2/1
f 40/2/1 36/2/1 39/2/1
f 41/4/1 38/4/1 37/4/1
f 42/4/1 38/4/1 41/4/1
f 43/3/1 42/3/1 41/3/1
f 44/3/1 42/3/1 43/3/1
f 45/3/1 40/3/1 39/3/1
f 46/3/1 40/3/1 45/3/1
f 47/4/1 44/4/1 43/4/1
f 48/4/1 44/4/1 47/4/1
f 49/4/1 47/4/1 43/4/1
f 50/1/1 48/1/1 47/1/1
f 50/4/1 47/4/1 49/4/1
f 51/4/1 44/4/1 48/4/1
f 51/1/1 48/1/1 50/1/1
f 52/4/1 44/4/1 51/4/1
f 53/4/1 46/4/1 45/4/1
f 54/4/1 46/4/1 53/4/1
f 55/3/1 50/3/1 49/3/1
f 55/1/1 51/1/1 50/1/1
f 56/3/1 52/3/1 51/3/1
f 56/1/1 51/1/1 55/1/1
f 57/3/1 54/3/1 53/3/1
f 58/3/1 54/3/1 57/3/1
f 59/3/1 54/3/1 58/3/1
f 60/3/1 54/3/1 59/3/1
f 61/3/1 55/3/1 49/3/1
f 61/3/1 56/3/1 55/3/1
f 62/3/1 56/3/1 61/3/1
f 63/3/1 56/3/1 62/3/1
f 64/3/1 56/3/1 63/3/1
f 65/3/1 57/3/1 53/3/1
f 65/1/1 58/1/1 57/1/1
f 66/3/1 59/3/1 58/3/1
f 66/1/1 58/1/1 65/1/1
f 67/3/1 59/3/1 66/3/1
f 68/3/1 59/3/1 67/3/1
f 69/1/1 60/1/1 59/1/1
f 69/3/1 59/3/1 68/3/1
f 70/3/1 54/3/1 60/3/1
f 70/1/1 60/1/1 69/1/1
f 71/1/1 62/1/1 61/1/1
f 72/3/1 63/3/1 62/3/1
f 72/1/1 62/1/1 71/1/1
f 73/1/1 64/1/1 63/1/1
f 73/3/1 63/3/1 72/3/1
f 74/3/1 56/3/1 64/3/1
f 74/1/1 64/1/1 73/1/1
f 75/3/1 73/3/1 72/3/1
f 75/3/1 72/3/1 71/3/1
f 75/3/1 74/3/1 73/3/1
f 76/3/1 74/3/1 75/3/1
f 77/3/1 74/3/1 76/3/1
f 78/3/1 56/3/1 74/3/1
f 78/3/1 74/3/1 77/3/1
f 79/3/1 66/3/1 65/3/1
f 79/3/1 67/3/1 66/3/1
f 80/1/1 68/1/1 67/1/1
f 80/3/1 67/3/1 79/3/1
f 81/3/1 69/3/1 68/3/1
f 81/1/1 68/1/1 80/1/1
f 81/3/1 70/3/1 69/3/1
f 82/3/1 54/3/1 70/3/1
f 82/3/1 70/3/1 81/3/1
f 83/3/1 54/3/1 82/3/1
f 84/3/1 77/3/1 76/3/1
f 84/1/1 76/1/1 75/1/1
f 85/3/1 77/3/1 84/3/1
f 86/3/1 79/3/1 65/3/1
f 87/1/1 80/1/1 79/1/1
f 87/3/1 79/3/1 86/3/1
f 88/1/1 83/1/1 82/1/1
f 88/3/1 81/3/1 80/3/1
f 88/3/1 82/3/1 81/3/1
f 89/3/1 54/3/1 83/3/1
f 89/1/1 83/1/1 88/1/1
f 90/3/1 75/3/1 71/3/1
f 91/1/1 85/1/1 84/1/1
f 91/3/1 75/3/1 90/3/1
f 91/1/1 84/1/1 75/1/1
f 92/3/1 77/3/1 85/3/1
f 92/1/1 85/1/1 91/1/1
f 93/1/1 78/1/1 77/1/1
f 93/3/1 77/3/1 92/3/1
f 94/3/1 56/3/1 78/3/1
f 94/1/1 78/1/1 93/1/1
f 95/3/1 52/3/1 56/3/1
f 95/3/1 56/3/1 94/3/1
f 96/3/1 86/3/1 65/3/1
f 96/3/1 65/3/1 53/3/1
f 97/1/1 87/1/1 86/1/1
f 97/3/1 86/3/1 96/3/1
f 98/3/1 88/3/1 80/3/1
f 98/1/1 87/1/1 97/1/1
f 98/1/1 80/1/1 87/1/1
f 98/3/1 89/3/1 88/3/1
f 99/3/1 54/3/1 89/3/1
f 99/3/1 89/3/1 98/3/1
f 100/9/2 101/9/2 102/9/2
f 102/9/2 101/9/2 103/9/2
f 104/9/2 105/9/2 106/9/2
f 106/9/2 105/9/2 107/9/2
f 110/7/3 109/7/3 108/7/3
f 118/7/3 110/7/3 108/7/3
f 119/2/3 111/2/3 110/2/3
f 119/7/3 110/7/3 118/7/3
f 120/4/3 112/4/3 111/4/3
f 120/2/3 111/2/3 119/2/3
f 121/3/3 113/3/3 112/3/3
f 121/4/3 112/4/3 120/4/3
f 122/4/3 114/4/3 113/4/3
f 122/3/3 113/3/3 121/3/3
f 123/3/3 115/3/3 114/3/3
f 123/4/3 114/4/3 122/4/3
f 124/1/3 116/1/3 115/1/3
f 124/3/3 115/3/3 123/3/3
f 125/3/3 117/3/3 116/3/3
f 125/1/3 116/1/3 124/1/3
f 126/3/3 117/3/3 125/3/3
f 127/9/3 124/9/3 123/9/3
f 127/9/3 119/9/3 118/9/3
f 127/9/3 126/9/3 125/9/3
f 127/9/3 125/9/3 124/9/3
f 127/9/3 123/9/3 122/9/3
f 127/9/3 122/9/3 121/9/3
f 127/9/3 121/9/3 120/9/3
f 127/9/3 120/9/3 119/9/3
f 128/9/3 126/9/3 127/9/3
f 129/9/3 127/9/3 118/9/3
f 130/9/3 127/9/3 129/9/3
f 139/2/3 132/2/3 131/2/3
f 140/3/3 136/3/3 135/3/3
f 140/1/3 137/1/3 136/1/3
f 141/3/3 138/3/3 137/3/3
f 141/1/3 137/1/3 140/1/3
f 142/3/3 141/3/3 140/3/3
f 142/3/3 138/3/3 141/3/3
f 143/3/3 138/3/3 142/3/3
f 144/3/3 142/3/3 140/3/3
f 145/1/3 143/1/3 142/1/3
f 145/3/3 142/3/3 144/3/3
f 146/3/3 144/3/3 140/3/3
f 146/1/3 145/1/3 144/1/3
f 147/1/3 143/1/3 145/1/3
f 147/1/3 145/1/3 146/1/3
f 148/3/3 140/3/3 135/3/3
f 148/3/3 146/3/3 140/3/3
f 148/3/3 147/3/3 146/3/3
f 149/3/3 147/3/3 148/3/3
f 150/3/3 148/3/3 135/3/3
f 150/1/3 149/1/3 148/1/3
f 151/3/3 147/3/3 149/3/3
f 151/1/3 149/1/3 150/1/3
f 152/2/3 132/2/3 139/2/3
f 153/4/3 133/4/3 132/4/3
f 153/2/3 132/2/3 152/2/3
f 154/3/3 134/3/3 133/3/3
f 154/4/3 133/4/3 153/4/3
f 155/4/3 135/4/3 134/4/3
f 155/3/3 134/3/3 154/3/3
f 156/3/3 150/3/3 135/3/3
f 156/4/3 135/4/3 155/4/3
f 156/3/3 151/3/3 150/3/3
f 157/3/3 147/3/3 151/3/3
f 157/3/3 151/3/3 156/3/3
f 158/2/4 159/2/4 163/2/4
f 161/3/4 162/3/4 164/3/4
f 164/3/4 162/3/4 165/3/4
f 161/3/4 164/3/4 166/3/4
f 164/1/4 165/1/4 166/1/4
f 165/3/4 162/3/4 167/3/4
f 166/1/4 165/1/4 167/1/4
f 167/3/4 162/3/4 168/3/4
f 168/3/4 162/3/4 169/3/4
f 166/3/4 167/3/4 170/3/4
f 167/3/4 168/3/4 170/3/4
f 168/1/4 169/1/4 171/1/4
f 170/3/4 168/3/4 171/3/4
f 166/3/4 170/3/4 172/3/4
f 170/1/4 171/1/4 172/1/4
f 171/1/4 169/1/4 173/1/4
f 172/1/4 171/1/4 173/1/4
f 161/3/4 166/3/4 174/3/4
f 166/3/4 172/3/4 174/3/4
f 172/3/4 173/3/4 174/3/4
f 174/3/4 173/3/4 175/3/4
f 175/3/4 173/3/4 176/3/4
f 176/3/4 173/3/4 177/3/4
f 161/3/4 174/3/4 178/3/4
f 174/1/4 175/1/4 178/1/4
f 175/3/4 176/3/4 179/3/4
f 178/1/4 175/1/4 179/1/4
f 176/1/4 177/1/4 180/1/4
f 179/3/4 176/3/4 180/3/4
f 180/1/4 177/1/4 181/1/4
f 178/3/4 179/3/4 182/3/4
f 179/3/4 180/3/4 182/3/4
f 180/3/4 181/3/4 182/3/4
f 182/3/4 181/3/4 183/3/4
f 178/3/4 182/3/4 184/3/4
f 182/1/4 183/1/4 184/1/4
f 183/3/4 181/3/4 185/3/4
f 184/1/4 183/1/4 185/1/4
f 163/2/4 159/2/4 186/2/4
f 159/3/4 160/3/4 187/3/4
f 186/2/4 159/2/4 187/2/4
f 160/4/4 161/4/4 188/4/4
f 187/3/4 160/3/4 188/3/4
f 161/3/4 178/3/4 189/3/4
f 188/4/4 161/4/4 189/4/4
f 178/3/4 184/3/4 189/3/4
f 184/3/4 185/3/4 189/3/4
f 185/3/4 181/3/4 190/3/4
f 189/3/4 185/3/4 190/3/4
f 191/7/4 192/7/4 193/7/4
f 191/7/4 193/7/4 198/7/4
f 193/2/4 194/2/4 199/2/4
f 198/7/4 193/7/4 199/7/4
f 194/3/4 195/3/4 200/3/4
f 199/2/4 194/2/4 200/2/4
f 195/4/4 196/4/4 201/4/4
f 200/3/4 195/3/4 201/3/4
f 196/3/4 197/3/4 202/3/4
f 201/4/4 196/4/4 202/4/4
f 202/3/4 197/3/4 203/3/4
f 200/9/4 201/9/4 204/9/4
f 198/9/4 199/9/4 204/9/4
f 202/9/4 203/9/4 204/9/4
f 201/9/4 202/9/4 204/9/4
f 199/9/4 200/9/4 204/9/4
f 204/9/4 203/9/4 205/9/4
f 198/9/4 204/9/4 206/9/4
f 206/9/4 204/9/4 207/9/4
f 211/7/5 209/7/5 208/7/5
f 212/9/5 210/9/5 209/9/5
f 212/7/5 209/7/5 211/7/5
f 213/9/5 210/9/5 212/9/5
f 214/9/5 210/9/5 213/9/5
f 215/9/5 210/9/5 214/9/5
f 216/9/5 210/9/5 215/9/5
f 217/7/5 211/7/5 208/7/5
f 217/5/5 212/5/5 211/5/5
f 217/5/5 213/5/5 212/5/5
f 218/6/5 214/6/5 213/6/5
f 218/5/5 213/5/5 217/5/5
f 219/7/5 215/7/5 214/7/5
f 219/6/5 214/6/5 218/6/5
f 220/5/5 216/5/5 215/5/5
f 220/7/5 215/7/5 219/7/5
f 221/9/5 210/9/5 216/9/5
f 221/5/5 216/5/5 220/5/5
f 222/7/5 220/7/5 219/7/5
f 222/7/5 219/7/5 218/7/5
f 222/7/5 221/7/5 220/7/5
f 222/7/5 217/7/5 208/7/5
f 222/7/5 218/7/5 217/7/5
f 223/7/5 221/7/5 222/7/5
f 224/7/5 221/7/5 223/7/5
f 225/7/5 221/7/5 224/7/5
f 226/9/5 210/9/5 221/9/5
f 226/7/5 221/7/5 225/7/5
f 227/7/5 222/7/5 208/7/5
f 227/5/5 223/5/5 222/5/5
f 228/5/5 223/5/5 227/5/5
f 229/6/5 224/6/5 223/6/5
f 229/5/5 223/5/5 228/5/5
f 230/7/5 225/7/5 224/7/5
f 230/6/5 224/6/5 229/6/5
f 231/5/5 226/5/5 225/5/5
f 231/7/5 225/7/5 230/7/5
f 232/9/5 210/9/5 226/9/5
f 232/5/5 226/5/5 231/5/5
f 233/7/5 228/7/5 227/7/5
f 233/7/5 227/7/5 208/7/5
f 234/9/5 229/9/5 228/9/5
f 234/7/5 228/7/5 233/7/5
f 234/9/5 231/9/5 230/9/5
f 234/9/5 232/9/5 231/9/5
f 234/9/5 230/9/5 229/9/5
f 235/9/5 210/9/5 232/9/5
f 235/9/5 232/9/5 234/9/5
f 236/7/6 237/7/6 240/7/6
f 240/7/6 237/7/6 241/7/6
f 236/7/6 240/7/6 242/7/6
f 240/5/6 241/5/6 243/5/6
f 242/7/6 240/7/6 243/7/6
f 243/5/6 241/5/6 244/5/6
f 245/7/6 246/7/6 248/7/6
f 246/5/6 247/5/6 248/5/6
f 248/5/6 247/5/6 249/5/6
f 245/7/6 248/7/6 250/7/6
f 248/7/6 249/7/6 250/7/6
f 250/7/6 249/7/6 251/7/6
f 238/9/6 239/9/6 252/9/6
f 252/9/6 239/9/6 253/9/6
f 254/3/6 255/3/6 257/3/6
f 255/9/6 256/9/6 258/9/6
f 257/3/6 255/3/6 258/3/6
f 257/1/6 258/1/6 259/1/6
f 258/9/6 256/9/6 260/9/6
f 259/1/6 258/1/6 260/1/6
f 259/3/6 260/3/6 261/3/6
f 260/9/6 256/9/6 262/9/6
f 261/3/6 260/3/6 262/3/6
f 261/1/6 262/1/6 263/1/6
f 262/9/6 256/9/6 264/9/6
f 263/1/6 262/1/6 264/1/6
f 263/3/6 264/3/6 268/3/6
f 264/9/6 256/9/6 269/9/6
f 268/3/6 264/3/6 269/3/6
f 265/3/6 266/3/6 270/3/6
f 266/1/6 267/1/6 271/1/6
f 270/3/6 266/3/6 271/3/6
f 267/3/6 268/3/6 272/3/6
f 271/1/6 267/1/6 272/1/6
f 268/9/6 269/9/6 273/9/6
f 272/3/6 268/3/6 273/3/6
f 270/9/6 271/9/6 274/9/6
f 271/9/6 272/9/6 274/9/6
f 272/9/6 273/9/6 274/9/6
f 274/9/6 273/9/6 275/9/6
f 275/9/6 273/9/6 276/9/6
f 276/9/6 273/9/6 277/9/6
f 277/9/6 273/9/6 278/9/6
f 273/9/6 269/9/6 279/9/6
f 278/9/6 273/9/6 279/9/6
f 274/3/6 275/3/6 280/3/6
f 275/1/6 276/1/6 281/1/6
f 280/3/6 275/3/6 281/3/6
f 276/3/6 277/3/6 282/3/6
f 281/1/6 276/1/6 282/1/6
f 277/1/6 278/1/6 283/1/6
f 282/3/6 277/3/6 283/3/6
f 278/3/6 279/3/6 284/3/6
f 283/1/6 278/1/6 284/1/6
f 279/9/6 269/9/6 285/9/6
f 284/3/6 279/3/6 285/3/6
f 269/9/6 256/9/6 286/9/6
f 285/9/6 269/9/6 286/9/6
f 285/3/6 286/3/6 287/3/6
f 286/9/6 256/9/6 288/9/6
f 287/3/6 286/3/6 288/3/6
f 287/1/6 288/1/6 289/1/6
f 288/9/6 256/9/6 290/9/6
f 289/1/6 288/1/6 290/1/6
f 289/3/6 290/3/6 291/3/6
f 290/9/6 256/9/6 292/9/6
f 291/3/6 290/3/6 292/3/6
f 292/9/6 256/9/6 293/9/6
