# MagicaVoxel @ Ephtracy

# material
mtllib Parede_Porta.mtl
usemtl palette

# normals
vn -1 0 0
vn 1 0 0
vn 0 0 1
vn 0 0 -1
vn 0 -1 0
vn 0 1 0

# texcoords
vt 0.349609 0.5
vt 0.408203 0.5
vt 0.412109 0.5
vt 0.416016 0.5
vt 0.689453 0.5
vt 0.693359 0.5
vt 0.697266 0.5
vt 0.970703 0.5
vt 0.974609 0.5
vt 0.994141 0.5

# verts
v -20 0 20
v -20 0 -20
v -20 1 20
v -20 1 -20
v -4 1 20
v -4 1 19
v -4 1 14
v -4 1 -14
v -4 1 -19
v -4 1 -20
v -4 6 20
v -4 6 14
v -4 6 -14
v -4 6 -20
v -4 7 20
v -4 7 14
v -4 7 -14
v -4 7 -20
v -4 61 20
v -4 61 14
v -4 61 -14
v -4 61 -20
v -4 64 20
v -4 64 14
v -4 64 -14
v -4 64 -20
v -4 68 19
v -4 68 18
v -4 68 -18
v -4 68 -19
v -4 69 19
v -4 69 18
v -4 69 15
v -4 69 14
v -4 69 -18
v -4 69 -19
v -4 70 18
v -4 70 17
v -4 71 20
v -4 71 18
v -4 71 17
v -4 71 15
v -4 71 14
v -4 71 -14
v -4 71 -20
v -1 2 -13
v -1 2 -14
v -1 6 -14
v -1 7 -14
v -1 61 -14
v -1 64 -14
v -1 65 -13
v -1 65 -14
v 1 2 -13
v 1 2 -14
v 1 6 -14
v 1 7 -14
v 1 61 -14
v 1 64 -14
v 1 65 -13
v 1 65 -14
v 4 1 20
v 4 1 19
v 4 1 14
v 4 1 -14
v 4 1 -19
v 4 1 -20
v 4 6 20
v 4 6 14
v 4 6 -14
v 4 6 -20
v 4 7 20
v 4 7 14
v 4 7 -14
v 4 7 -20
v 4 61 20
v 4 61 14
v 4 61 -14
v 4 61 -20
v 4 64 20
v 4 64 14
v 4 64 -14
v 4 64 -20
v 4 71 20
v 4 71 14
v 4 71 -14
v 4 71 -20
v 20 0 20
v 20 0 -20
v 20 1 20
v 20 1 -20
v -20 0 20
v -20 1 20
v -4 1 20
v -4 6 20
v -4 7 20
v -4 61 20
v -4 64 20
v -4 71 20
v -3 1 20
v -3 6 20
v -3 7 20
v -3 61 20
v -3 64 20
v -3 71 20
v 3 1 20
v 3 6 20
v 3 7 20
v 3 61 20
v 3 64 20
v 3 71 20
v 4 1 20
v 4 6 20
v 4 7 20
v 4 61 20
v 4 64 20
v 4 71 20
v 20 0 20
v 20 1 20
v -1 2 -13
v -1 65 -13
v 1 2 -13
v 1 65 -13
v -4 1 -14
v -4 6 -14
v -4 7 -14
v -4 61 -14
v -4 64 -14
v -4 71 -14
v -2 70 -14
v -2 71 -14
v -1 2 -14
v -1 6 -14
v -1 7 -14
v -1 61 -14
v -1 64 -14
v -1 65 -14
v -1 70 -14
v -1 71 -14
v 1 2 -14
v 1 6 -14
v 1 7 -14
v 1 61 -14
v 1 64 -14
v 1 65 -14
v 1 67 -14
v 1 68 -14
v 2 67 -14
v 2 68 -14
v 4 1 -14
v 4 6 -14
v 4 7 -14
v 4 61 -14
v 4 64 -14
v 4 71 -14
v -4 1 14
v -4 6 14
v -4 7 14
v -4 61 14
v -4 64 14
v -4 69 14
v -4 71 14
v -3 69 14
v -3 71 14
v 0 67 14
v 0 68 14
v 1 67 14
v 1 68 14
v 4 1 14
v 4 6 14
v 4 7 14
v 4 61 14
v 4 64 14
v 4 71 14
v -20 0 -20
v -20 1 -20
v -4 1 -20
v -4 6 -20
v -4 7 -20
v -4 61 -20
v -4 64 -20
v -4 71 -20
v -3 1 -20
v -3 6 -20
v -3 7 -20
v -3 61 -20
v -3 64 -20
v -3 71 -20
v 3 1 -20
v 3 6 -20
v 3 7 -20
v 3 61 -20
v 3 64 -20
v 3 71 -20
v 4 1 -20
v 4 6 -20
v 4 7 -20
v 4 61 -20
v 4 64 -20
v 4 71 -20
v 20 0 -20
v 20 1 -20
v -20 0 20
v 20 0 20
v -19 0 19
v -18 0 19
v 19 0 19
v -19 0 -19
v -18 0 -19
v 19 0 -19
v -20 0 -20
v 20 0 -20
v -1 2 -13
v 1 2 -13
v -1 2 -14
v 1 2 -14
v -20 1 20
v -4 1 20
v 4 1 20
v 20 1 20
v -19 1 19
v -18 1 19
v -4 1 19
v 4 1 19
v 19 1 19
v -4 1 14
v 4 1 14
v -4 1 -14
v 4 1 -14
v -19 1 -19
v -18 1 -19
v -4 1 -19
v 4 1 -19
v 19 1 -19
v -20 1 -20
v -4 1 -20
v 4 1 -20
v 20 1 -20
v -1 65 -13
v 1 65 -13
v -1 65 -14
v 1 65 -14
v -4 71 20
v -3 71 20
v 3 71 20
v 4 71 20
v -4 71 18
v -3 71 18
v -4 71 17
v -3 71 17
v -4 71 15
v -3 71 15
v 3 71 15
v -4 71 14
v -3 71 14
v 4 71 14
v -4 71 -14
v -2 71 -14
v -1 71 -14
v 4 71 -14
v -3 71 -15
v -2 71 -15
v -1 71 -15
v 3 71 -15
v -4 71 -20
v -3 71 -20
v 3 71 -20
v 4 71 -20

# faces
f 3/7/1 2/7/1 1/7/1
f 4/7/1 2/7/1 3/7/1
f 11/2/1 6/2/1 5/2/1
f 11/2/1 7/2/1 6/2/1
f 12/2/1 7/2/1 11/2/1
f 13/2/1 10/2/1 9/2/1
f 13/2/1 9/2/1 8/2/1
f 14/2/1 10/2/1 13/2/1
f 15/4/1 12/4/1 11/4/1
f 16/4/1 12/4/1 15/4/1
f 17/4/1 14/4/1 13/4/1
f 18/4/1 14/4/1 17/4/1
f 19/3/1 16/3/1 15/3/1
f 20/3/1 16/3/1 19/3/1
f 21/3/1 18/3/1 17/3/1
f 22/3/1 18/3/1 21/3/1
f 23/4/1 20/4/1 19/4/1
f 24/4/1 20/4/1 23/4/1
f 25/4/1 22/4/1 21/4/1
f 26/4/1 22/4/1 25/4/1
f 27/3/1 24/3/1 23/3/1
f 28/3/1 24/3/1 27/3/1
f 29/3/1 26/3/1 25/3/1
f 30/3/1 26/3/1 29/3/1
f 31/3/1 27/3/1 23/3/1
f 31/1/1 28/1/1 27/1/1
f 32/3/1 24/3/1 28/3/1
f 32/1/1 28/1/1 31/1/1
f 33/3/1 24/3/1 32/3/1
f 34/3/1 24/3/1 33/3/1
f 35/1/1 30/1/1 29/1/1
f 35/3/1 29/3/1 25/3/1
f 36/3/1 26/3/1 30/3/1
f 36/1/1 30/1/1 35/1/1
f 37/3/1 33/3/1 32/3/1
f 37/3/1 32/3/1 31/3/1
f 38/3/1 33/3/1 37/3/1
f 39/3/1 31/3/1 23/3/1
f 39/3/1 37/3/1 31/3/1
f 40/1/1 38/1/1 37/1/1
f 40/3/1 37/3/1 39/3/1
f 41/3/1 33/3/1 38/3/1
f 41/1/1 38/1/1 40/1/1
f 42/1/1 34/1/1 33/1/1
f 42/3/1 33/3/1 41/3/1
f 43/1/1 34/1/1 42/1/1
f 44/3/1 35/3/1 25/3/1
f 44/3/1 36/3/1 35/3/1
f 45/3/1 26/3/1 36/3/1
f 45/3/1 36/3/1 44/3/1
f 48/9/1 47/9/1 46/9/1
f 49/9/1 48/9/1 46/9/1
f 50/9/1 49/9/1 46/9/1
f 51/9/1 50/9/1 46/9/1
f 52/9/1 51/9/1 46/9/1
f 53/9/1 51/9/1 52/9/1
f 54/9/2 55/9/2 56/9/2
f 54/9/2 56/9/2 57/9/2
f 54/9/2 57/9/2 58/9/2
f 54/9/2 58/9/2 59/9/2
f 54/9/2 59/9/2 60/9/2
f 60/9/2 59/9/2 61/9/2
f 62/2/2 63/2/2 68/2/2
f 63/2/2 64/2/2 68/2/2
f 68/2/2 64/2/2 69/2/2
f 66/2/2 67/2/2 70/2/2
f 65/2/2 66/2/2 70/2/2
f 70/2/2 67/2/2 71/2/2
f 68/4/2 69/4/2 72/4/2
f 72/4/2 69/4/2 73/4/2
f 70/4/2 71/4/2 74/4/2
f 74/4/2 71/4/2 75/4/2
f 72/3/2 73/3/2 76/3/2
f 76/3/2 73/3/2 77/3/2
f 74/3/2 75/3/2 78/3/2
f 78/3/2 75/3/2 79/3/2
f 76/4/2 77/4/2 80/4/2
f 80/4/2 77/4/2 81/4/2
f 78/4/2 79/4/2 82/4/2
f 82/4/2 79/4/2 83/4/2
f 80/3/2 81/3/2 84/3/2
f 84/3/2 81/3/2 85/3/2
f 82/3/2 83/3/2 86/3/2
f 86/3/2 83/3/2 87/3/2
f 88/7/2 89/7/2 90/7/2
f 90/7/2 89/7/2 91/7/2
f 94/7/3 93/7/3 92/7/3
f 100/7/3 94/7/3 92/7/3
f 100/2/3 95/2/3 94/2/3
f 101/4/3 96/4/3 95/4/3
f 101/2/3 95/2/3 100/2/3
f 102/3/3 97/3/3 96/3/3
f 102/4/3 96/4/3 101/4/3
f 103/4/3 98/4/3 97/4/3
f 103/3/3 97/3/3 102/3/3
f 104/3/3 99/3/3 98/3/3
f 104/4/3 98/4/3 103/4/3
f 105/3/3 99/3/3 104/3/3
f 106/10/3 103/10/3 102/10/3
f 106/10/3 102/10/3 101/10/3
f 106/10/3 105/10/3 104/10/3
f 106/10/3 104/10/3 103/10/3
f 106/10/3 101/10/3 100/10/3
f 106/7/3 100/7/3 92/7/3
f 107/10/3 105/10/3 106/10/3
f 108/10/3 105/10/3 107/10/3
f 109/10/3 105/10/3 108/10/3
f 110/10/3 105/10/3 109/10/3
f 111/10/3 105/10/3 110/10/3
f 112/7/3 106/7/3 92/7/3
f 112/2/3 107/2/3 106/2/3
f 113/4/3 108/4/3 107/4/3
f 113/2/3 107/2/3 112/2/3
f 114/3/3 109/3/3 108/3/3
f 114/4/3 108/4/3 113/4/3
f 115/4/3 110/4/3 109/4/3
f 115/3/3 109/3/3 114/3/3
f 116/3/3 111/3/3 110/3/3
f 116/4/3 110/4/3 115/4/3
f 117/3/3 111/3/3 116/3/3
f 118/7/3 112/7/3 92/7/3
f 119/7/3 112/7/3 118/7/3
f 122/9/3 121/9/3 120/9/3
f 123/9/3 121/9/3 122/9/3
f 130/3/3 129/3/3 128/3/3
f 131/3/3 129/3/3 130/3/3
f 132/2/3 125/2/3 124/2/3
f 133/4/3 126/4/3 125/4/3
f 133/2/3 125/2/3 132/2/3
f 134/3/3 127/3/3 126/3/3
f 134/4/3 126/4/3 133/4/3
f 135/4/3 128/4/3 127/4/3
f 135/3/3 127/3/3 134/3/3
f 136/3/3 130/3/3 128/3/3
f 136/4/3 128/4/3 135/4/3
f 137/3/3 130/3/3 136/3/3
f 138/1/3 131/1/3 130/1/3
f 138/3/3 130/3/3 137/3/3
f 139/1/3 131/1/3 138/1/3
f 140/2/3 132/2/3 124/2/3
f 145/3/3 139/3/3 138/3/3
f 145/3/3 138/3/3 137/3/3
f 146/3/3 139/3/3 145/3/3
f 147/3/3 139/3/3 146/3/3
f 148/3/3 145/3/3 144/3/3
f 148/3/3 146/3/3 145/3/3
f 148/1/3 147/1/3 146/1/3
f 149/3/3 139/3/3 147/3/3
f 149/1/3 147/1/3 148/1/3
f 150/2/3 140/2/3 124/2/3
f 150/2/3 141/2/3 140/2/3
f 151/4/3 142/4/3 141/4/3
f 151/2/3 141/2/3 150/2/3
f 152/3/3 143/3/3 142/3/3
f 152/4/3 142/4/3 151/4/3
f 153/4/3 144/4/3 143/4/3
f 153/3/3 143/3/3 152/3/3
f 154/3/3 149/3/3 148/3/3
f 154/4/3 144/4/3 153/4/3
f 154/3/3 148/3/3 144/3/3
f 155/3/3 139/3/3 149/3/3
f 155/3/3 149/3/3 154/3/3
f 160/3/4 161/3/4 163/3/4
f 161/1/4 162/1/4 163/1/4
f 163/1/4 162/1/4 164/1/4
f 160/3/4 163/3/4 165/3/4
f 163/3/4 164/3/4 165/3/4
f 165/3/4 164/3/4 166/3/4
f 160/3/4 165/3/4 167/3/4
f 165/1/4 166/1/4 167/1/4
f 166/3/4 164/3/4 168/3/4
f 167/1/4 166/1/4 168/1/4
f 156/2/4 157/2/4 169/2/4
f 157/4/4 158/4/4 170/4/4
f 169/2/4 157/2/4 170/2/4
f 158/3/4 159/3/4 171/3/4
f 170/4/4 158/4/4 171/4/4
f 159/4/4 160/4/4 172/4/4
f 171/3/4 159/3/4 172/3/4
f 160/3/4 167/3/4 173/3/4
f 172/4/4 160/4/4 173/4/4
f 167/3/4 168/3/4 173/3/4
f 168/3/4 164/3/4 174/3/4
f 173/3/4 168/3/4 174/3/4
f 175/7/4 176/7/4 177/7/4
f 175/7/4 177/7/4 183/7/4
f 177/2/4 178/2/4 183/2/4
f 178/4/4 179/4/4 184/4/4
f 183/2/4 178/2/4 184/2/4
f 179/3/4 180/3/4 185/3/4
f 184/4/4 179/4/4 185/4/4
f 180/4/4 181/4/4 186/4/4
f 185/3/4 180/3/4 186/3/4
f 181/3/4 182/3/4 187/3/4
f 186/4/4 181/4/4 187/4/4
f 187/3/4 182/3/4 188/3/4
f 185/10/4 186/10/4 189/10/4
f 184/10/4 185/10/4 189/10/4
f 187/10/4 188/10/4 189/10/4
f 186/10/4 187/10/4 189/10/4
f 183/10/4 184/10/4 189/10/4
f 175/7/4 183/7/4 189/7/4
f 189/10/4 188/10/4 190/10/4
f 190/10/4 188/10/4 191/10/4
f 191/10/4 188/10/4 192/10/4
f 192/10/4 188/10/4 193/10/4
f 193/10/4 188/10/4 194/10/4
f 175/7/4 189/7/4 195/7/4
f 189/2/4 190/2/4 195/2/4
f 190/4/4 191/4/4 196/4/4
f 195/2/4 190/2/4 196/2/4
f 191/3/4 192/3/4 197/3/4
f 196/4/4 191/4/4 197/4/4
f 192/4/4 193/4/4 198/4/4
f 197/3/4 192/3/4 198/3/4
f 193/3/4 194/3/4 199/3/4
f 198/4/4 193/4/4 199/4/4
f 199/3/4 194/3/4 200/3/4
f 175/7/4 195/7/4 201/7/4
f 201/7/4 195/7/4 202/7/4
f 205/7/5 204/7/5 203/7/5
f 206/7/5 204/7/5 205/7/5
f 207/7/5 204/7/5 206/7/5
f 208/7/5 205/7/5 203/7/5
f 208/6/5 206/6/5 205/6/5
f 209/5/5 207/5/5 206/5/5
f 209/6/5 206/6/5 208/6/5
f 210/7/5 204/7/5 207/7/5
f 210/5/5 207/5/5 209/5/5
f 211/7/5 209/7/5 208/7/5
f 211/7/5 208/7/5 203/7/5
f 211/7/5 210/7/5 209/7/5
f 212/7/5 204/7/5 210/7/5
f 212/7/5 210/7/5 211/7/5
f 215/9/5 214/9/5 213/9/5
f 216/9/5 214/9/5 215/9/5
f 217/7/6 218/7/6 221/7/6
f 221/7/6 218/7/6 222/7/6
f 222/7/6 218/7/6 223/7/6
f 219/7/6 220/7/6 224/7/6
f 224/7/6 220/7/6 225/7/6
f 222/5/6 223/5/6 226/5/6
f 224/5/6 225/5/6 227/5/6
f 222/5/6 226/5/6 228/5/6
f 226/5/6 227/5/6 228/5/6
f 227/5/6 225/5/6 229/5/6
f 228/5/6 227/5/6 229/5/6
f 217/7/6 221/7/6 230/7/6
f 221/6/6 222/6/6 230/6/6
f 222/5/6 228/5/6 231/5/6
f 230/6/6 222/6/6 231/6/6
f 231/5/6 228/5/6 232/5/6
f 229/5/6 225/5/6 233/5/6
f 225/7/6 220/7/6 234/7/6
f 233/5/6 225/5/6 234/5/6
f 231/7/6 232/7/6 235/7/6
f 217/7/6 230/7/6 235/7/6
f 230/7/6 231/7/6 235/7/6
f 235/7/6 232/7/6 236/7/6
f 233/7/6 234/7/6 237/7/6
f 234/7/6 220/7/6 238/7/6
f 237/7/6 234/7/6 238/7/6
f 239/9/6 240/9/6 241/9/6
f 241/9/6 240/9/6 242/9/6
f 243/3/6 244/3/6 247/3/6
f 244/10/6 245/10/6 248/10/6
f 247/3/6 244/3/6 248/3/6
f 247/1/6 248/1/6 249/1/6
f 248/10/6 245/10/6 250/10/6
f 249/1/6 248/1/6 250/1/6
f 249/3/6 250/3/6 251/3/6
f 250/10/6 245/10/6 252/10/6
f 251/3/6 250/3/6 252/3/6
f 245/3/6 246/3/6 253/3/6
f 252/10/6 245/10/6 253/10/6
f 251/1/6 252/1/6 254/1/6
f 252/3/6 253/3/6 255/3/6
f 254/1/6 252/1/6 255/1/6
f 253/3/6 246/3/6 256/3/6
f 255/3/6 253/3/6 256/3/6
f 257/3/6 258/3/6 261/3/6
f 258/1/6 259/1/6 262/1/6
f 261/3/6 258/3/6 262/3/6
f 259/3/6 260/3/6 263/3/6
f 262/1/6 259/1/6 263/1/6
f 263/3/6 260/3/6 264/3/6
f 257/3/6 261/3/6 265/3/6
f 261/10/6 262/10/6 266/10/6
f 265/3/6 261/3/6 266/3/6
f 262/10/6 263/10/6 266/10/6
f 263/10/6 264/10/6 266/10/6
f 264/3/6 260/3/6 267/3/6
f 266/10/6 264/10/6 267/10/6
f 267/3/6 260/3/6 268/3/6
