# MagicaVoxel @ Ephtracy

# material
mtllib Parede_End.mtl
usemtl palette

# normals
vn -1 0 0
vn 1 0 0
vn 0 0 1
vn 0 0 -1
vn 0 -1 0
vn 0 1 0

# texcoords
vt 0.349609 0.5
vt 0.408203 0.5
vt 0.412109 0.5
vt 0.416016 0.5
vt 0.689453 0.5
vt 0.693359 0.5
vt 0.697266 0.5
vt 0.970703 0.5
vt 0.994141 0.5

# verts
v -20 0 20
v -20 0 -20
v -20 1 20
v -20 1 -20
v -4 1 4
v -4 1 -19
v -4 1 -20
v -4 6 4
v -4 6 -20
v -4 7 4
v -4 7 -20
v -4 61 4
v -4 61 -20
v -4 64 4
v -4 64 -20
v -4 68 4
v -4 68 3
v -4 69 -13
v -4 69 -14
v -4 70 -13
v -4 70 -14
v -4 71 4
v -4 71 3
v -4 71 -20
v 4 1 4
v 4 1 -19
v 4 1 -20
v 4 6 4
v 4 6 -20
v 4 7 4
v 4 7 -20
v 4 61 4
v 4 61 -20
v 4 64 4
v 4 64 -20
v 4 65 -4
v 4 65 -5
v 4 66 -16
v 4 66 -17
v 4 67 4
v 4 67 3
v 4 67 -4
v 4 67 -5
v 4 67 -7
v 4 67 -8
v 4 67 -16
v 4 67 -17
v 4 68 4
v 4 68 3
v 4 68 -7
v 4 68 -8
v 4 69 4
v 4 69 3
v 4 69 -7
v 4 69 -8
v 4 70 3
v 4 70 2
v 4 70 -8
v 4 70 -9
v 4 71 4
v 4 71 2
v 4 71 -7
v 4 71 -9
v 4 71 -20
v 20 0 20
v 20 0 -20
v 20 1 20
v 20 1 -20
v -20 0 20
v -20 1 20
v 20 0 20
v 20 1 20
v -4 1 4
v -4 6 4
v -4 7 4
v -4 61 4
v -4 64 4
v -4 68 4
v -4 71 4
v -3 66 4
v -3 67 4
v -3 68 4
v -3 71 4
v -2 66 4
v -2 67 4
v 2 70 4
v 2 71 4
v 3 67 4
v 3 68 4
v 3 69 4
v 3 70 4
v 4 1 4
v 4 6 4
v 4 7 4
v 4 61 4
v 4 64 4
v 4 67 4
v 4 68 4
v 4 69 4
v 4 71 4
v -20 0 -20
v -20 1 -20
v -4 1 -20
v -4 6 -20
v -4 7 -20
v -4 61 -20
v -4 64 -20
v -4 71 -20
v -3 1 -20
v -3 6 -20
v -3 7 -20
v -3 61 -20
v -3 64 -20
v -3 71 -20
v 3 1 -20
v 3 6 -20
v 3 7 -20
v 3 61 -20
v 3 64 -20
v 3 71 -20
v 4 1 -20
v 4 6 -20
v 4 7 -20
v 4 61 -20
v 4 64 -20
v 4 71 -20
v 20 0 -20
v 20 1 -20
v -20 0 20
v 20 0 20
v -19 0 19
v -18 0 19
v 19 0 19
v -19 0 -19
v -18 0 -19
v 19 0 -19
v -20 0 -20
v 20 0 -20
v -20 1 20
v 20 1 20
v -19 1 19
v -18 1 19
v 19 1 19
v -4 1 4
v 4 1 4
v -19 1 -19
v -18 1 -19
v -4 1 -19
v 4 1 -19
v 19 1 -19
v -20 1 -20
v -4 1 -20
v 4 1 -20
v 20 1 -20
v -4 71 4
v -3 71 4
v 2 71 4
v 4 71 4
v -4 71 3
v -3 71 3
v 2 71 3
v 3 71 3
v 3 71 2
v 4 71 2
v 3 71 -7
v 4 71 -7
v 3 71 -9
v 4 71 -9
v -4 71 -20
v -3 71 -20
v 3 71 -20
v 4 71 -20

# faces
f 3/7/1 2/7/1 1/7/1
f 4/7/1 2/7/1 3/7/1
f 8/2/1 6/2/1 5/2/1
f 8/2/1 7/2/1 6/2/1
f 9/2/1 7/2/1 8/2/1
f 10/4/1 9/4/1 8/4/1
f 11/4/1 9/4/1 10/4/1
f 12/3/1 11/3/1 10/3/1
f 13/3/1 11/3/1 12/3/1
f 14/4/1 13/4/1 12/4/1
f 15/4/1 13/4/1 14/4/1
f 16/3/1 15/3/1 14/3/1
f 17/3/1 15/3/1 16/3/1
f 18/3/1 15/3/1 17/3/1
f 19/3/1 15/3/1 18/3/1
f 20/3/1 18/3/1 17/3/1
f 20/1/1 19/1/1 18/1/1
f 21/3/1 15/3/1 19/3/1
f 21/1/1 19/1/1 20/1/1
f 22/1/1 17/1/1 16/1/1
f 23/3/1 20/3/1 17/3/1
f 23/1/1 17/1/1 22/1/1
f 23/3/1 21/3/1 20/3/1
f 24/3/1 15/3/1 21/3/1
f 24/3/1 21/3/1 23/3/1
f 25/2/2 26/2/2 28/2/2
f 26/2/2 27/2/2 28/2/2
f 28/2/2 27/2/2 29/2/2
f 28/4/2 29/4/2 30/4/2
f 30/4/2 29/4/2 31/4/2
f 30/3/2 31/3/2 32/3/2
f 32/3/2 31/3/2 33/3/2
f 32/4/2 33/4/2 34/4/2
f 34/4/2 33/4/2 35/4/2
f 34/3/2 35/3/2 36/3/2
f 36/3/2 35/3/2 37/3/2
f 37/3/2 35/3/2 38/3/2
f 38/3/2 35/3/2 39/3/2
f 34/3/2 36/3/2 40/3/2
f 40/3/2 36/3/2 41/3/2
f 36/1/2 37/1/2 42/1/2
f 41/3/2 36/3/2 42/3/2
f 37/3/2 38/3/2 43/3/2
f 42/1/2 37/1/2 43/1/2
f 43/3/2 38/3/2 44/3/2
f 44/3/2 38/3/2 45/3/2
f 38/1/2 39/1/2 46/1/2
f 45/3/2 38/3/2 46/3/2
f 39/3/2 35/3/2 47/3/2
f 46/1/2 39/1/2 47/1/2
f 40/1/2 41/1/2 48/1/2
f 41/3/2 42/3/2 49/3/2
f 48/1/2 41/1/2 49/1/2
f 42/3/2 43/3/2 49/3/2
f 43/3/2 44/3/2 49/3/2
f 44/1/2 45/1/2 50/1/2
f 49/3/2 44/3/2 50/3/2
f 45/3/2 46/3/2 51/3/2
f 50/1/2 45/1/2 51/1/2
f 46/3/2 47/3/2 51/3/2
f 49/3/2 50/3/2 52/3/2
f 48/3/2 49/3/2 52/3/2
f 50/3/2 51/3/2 52/3/2
f 52/3/2 51/3/2 53/3/2
f 53/3/2 51/3/2 54/3/2
f 51/3/2 47/3/2 55/3/2
f 54/3/2 51/3/2 55/3/2
f 53/3/2 54/3/2 56/3/2
f 52/1/2 53/1/2 56/1/2
f 56/3/2 54/3/2 57/3/2
f 55/3/2 47/3/2 58/3/2
f 54/1/2 55/1/2 58/1/2
f 58/3/2 47/3/2 59/3/2
f 56/1/2 57/1/2 60/1/2
f 52/1/2 56/1/2 60/1/2
f 57/3/2 54/3/2 61/3/2
f 60/1/2 57/1/2 61/1/2
f 58/1/2 59/1/2 62/1/2
f 61/3/2 54/3/2 62/3/2
f 54/1/2 58/1/2 62/1/2
f 59/3/2 47/3/2 63/3/2
f 62/1/2 59/1/2 63/1/2
f 47/3/2 35/3/2 64/3/2
f 63/3/2 47/3/2 64/3/2
f 65/7/2 66/7/2 67/7/2
f 67/7/2 66/7/2 68/7/2
f 71/7/3 70/7/3 69/7/3
f 72/7/3 70/7/3 71/7/3
f 80/3/3 78/3/3 77/3/3
f 81/3/3 78/3/3 80/3/3
f 82/1/3 79/1/3 78/1/3
f 82/3/3 78/3/3 81/3/3
f 83/1/3 79/1/3 82/1/3
f 84/1/3 81/1/3 80/1/3
f 84/3/3 80/3/3 77/3/3
f 85/3/3 83/3/3 82/3/3
f 85/1/3 81/1/3 84/1/3
f 85/3/3 82/3/3 81/3/3
f 86/3/3 85/3/3 84/3/3
f 86/3/3 83/3/3 85/3/3
f 87/3/3 83/3/3 86/3/3
f 88/3/3 86/3/3 84/3/3
f 89/3/3 86/3/3 88/3/3
f 90/3/3 86/3/3 89/3/3
f 91/1/3 87/1/3 86/1/3
f 91/3/3 86/3/3 90/3/3
f 92/2/3 74/2/3 73/2/3
f 93/4/3 75/4/3 74/4/3
f 93/2/3 74/2/3 92/2/3
f 94/3/3 76/3/3 75/3/3
f 94/4/3 75/4/3 93/4/3
f 95/4/3 77/4/3 76/4/3
f 95/3/3 76/3/3 94/3/3
f 96/3/3 84/3/3 77/3/3
f 96/4/3 77/4/3 95/4/3
f 96/3/3 88/3/3 84/3/3
f 97/1/3 89/1/3 88/1/3
f 97/3/3 88/3/3 96/3/3
f 98/3/3 90/3/3 89/3/3
f 98/1/3 89/1/3 97/1/3
f 99/1/3 91/1/3 90/1/3
f 99/3/3 90/3/3 98/3/3
f 100/1/3 87/1/3 91/1/3
f 100/1/3 91/1/3 99/1/3
f 101/7/4 102/7/4 103/7/4
f 101/7/4 103/7/4 109/7/4
f 103/2/4 104/2/4 109/2/4
f 104/4/4 105/4/4 110/4/4
f 109/2/4 104/2/4 110/2/4
f 105/3/4 106/3/4 111/3/4
f 110/4/4 105/4/4 111/4/4
f 106/4/4 107/4/4 112/4/4
f 111/3/4 106/3/4 112/3/4
f 107/3/4 108/3/4 113/3/4
f 112/4/4 107/4/4 113/4/4
f 113/3/4 108/3/4 114/3/4
f 111/9/4 112/9/4 115/9/4
f 110/9/4 111/9/4 115/9/4
f 113/9/4 114/9/4 115/9/4
f 112/9/4 113/9/4 115/9/4
f 109/9/4 110/9/4 115/9/4
f 101/7/4 109/7/4 115/7/4
f 115/9/4 114/9/4 116/9/4
f 116/9/4 114/9/4 117/9/4
f 117/9/4 114/9/4 118/9/4
f 118/9/4 114/9/4 119/9/4
f 119/9/4 114/9/4 120/9/4
f 101/7/4 115/7/4 121/7/4
f 115/2/4 116/2/4 121/2/4
f 116/4/4 117/4/4 122/4/4
f 121/2/4 116/2/4 122/2/4
f 117/3/4 118/3/4 123/3/4
f 122/4/4 117/4/4 123/4/4
f 118/4/4 119/4/4 124/4/4
f 123/3/4 118/3/4 124/3/4
f 119/3/4 120/3/4 125/3/4
f 124/4/4 119/4/4 125/4/4
f 125/3/4 120/3/4 126/3/4
f 101/7/4 121/7/4 127/7/4
f 127/7/4 121/7/4 128/7/4
f 131/7/5 130/7/5 129/7/5
f 132/7/5 130/7/5 131/7/5
f 133/7/5 130/7/5 132/7/5
f 134/7/5 131/7/5 129/7/5
f 134/6/5 132/6/5 131/6/5
f 135/5/5 133/5/5 132/5/5
f 135/6/5 132/6/5 134/6/5
f 136/7/5 130/7/5 133/7/5
f 136/5/5 133/5/5 135/5/5
f 137/7/5 135/7/5 134/7/5
f 137/7/5 134/7/5 129/7/5
f 137/7/5 136/7/5 135/7/5
f 138/7/5 130/7/5 136/7/5
f 138/7/5 136/7/5 137/7/5
f 139/7/6 140/7/6 141/7/6
f 141/7/6 140/7/6 142/7/6
f 142/7/6 140/7/6 143/7/6
f 142/5/6 143/5/6 144/5/6
f 144/5/6 143/5/6 145/5/6
f 139/7/6 141/7/6 146/7/6
f 141/6/6 142/6/6 146/6/6
f 142/5/6 144/5/6 147/5/6
f 146/6/6 142/6/6 147/6/6
f 147/5/6 144/5/6 148/5/6
f 145/5/6 143/5/6 149/5/6
f 143/7/6 140/7/6 150/7/6
f 149/5/6 143/5/6 150/5/6
f 147/7/6 148/7/6 151/7/6
f 139/7/6 146/7/6 151/7/6
f 146/7/6 147/7/6 151/7/6
f 151/7/6 148/7/6 152/7/6
f 149/7/6 150/7/6 153/7/6
f 150/7/6 140/7/6 154/7/6
f 153/7/6 150/7/6 154/7/6
f 155/1/6 156/1/6 159/1/6
f 156/3/6 157/3/6 160/3/6
f 159/1/6 156/1/6 160/1/6
f 157/1/6 158/1/6 161/1/6
f 160/3/6 157/3/6 161/3/6
f 161/1/6 158/1/6 162/1/6
f 160/9/6 161/9/6 163/9/6
f 162/1/6 158/1/6 163/1/6
f 161/9/6 162/9/6 163/9/6
f 163/1/6 158/1/6 164/1/6
f 160/9/6 163/9/6 165/9/6
f 163/3/6 164/3/6 165/3/6
f 165/3/6 164/3/6 166/3/6
f 160/9/6 165/9/6 167/9/6
f 165/1/6 166/1/6 167/1/6
f 167/1/6 166/1/6 168/1/6
f 159/3/6 160/3/6 169/3/6
f 160/9/6 167/9/6 170/9/6
f 169/3/6 160/3/6 170/3/6
f 167/3/6 168/3/6 171/3/6
f 170/9/6 167/9/6 171/9/6
f 171/3/6 168/3/6 172/3/6
