# MagicaVoxel @ Ephtracy

# material
mtllib Chao_Liso_Inteiro.mtl
usemtl palette

# normals
vn -1 0 0
vn 1 0 0
vn 0 0 1
vn 0 0 -1
vn 0 -1 0
vn 0 1 0

# texcoords
vt 0.689453 0.5
vt 0.693359 0.5
vt 0.697266 0.5

# verts
v -20 0 20
v -20 0 -20
v -20 1 20
v -20 1 -20
v 20 0 20
v 20 0 -20
v 20 1 20
v 20 1 -20
v -20 0 20
v -20 1 20
v 20 0 20
v 20 1 20
v -20 0 -20
v -20 1 -20
v 20 0 -20
v 20 1 -20
v -20 0 20
v 20 0 20
v -19 0 19
v -18 0 19
v 19 0 19
v -19 0 -19
v -18 0 -19
v 19 0 -19
v -20 0 -20
v 20 0 -20
v -20 1 20
v 20 1 20
v -19 1 19
v -18 1 19
v 19 1 19
v -19 1 -19
v -18 1 -19
v 19 1 -19
v -20 1 -20
v 20 1 -20

# faces
f 3/3/1 2/3/1 1/3/1
f 4/3/1 2/3/1 3/3/1
f 5/3/2 6/3/2 7/3/2
f 7/3/2 6/3/2 8/3/2
f 11/3/3 10/3/3 9/3/3
f 12/3/3 10/3/3 11/3/3
f 13/3/4 14/3/4 15/3/4
f 15/3/4 14/3/4 16/3/4
f 19/3/5 18/3/5 17/3/5
f 20/3/5 18/3/5 19/3/5
f 21/3/5 18/3/5 20/3/5
f 22/3/5 19/3/5 17/3/5
f 22/2/5 20/2/5 19/2/5
f 23/1/5 21/1/5 20/1/5
f 23/2/5 20/2/5 22/2/5
f 24/3/5 18/3/5 21/3/5
f 24/1/5 21/1/5 23/1/5
f 25/3/5 23/3/5 22/3/5
f 25/3/5 22/3/5 17/3/5
f 25/3/5 24/3/5 23/3/5
f 26/3/5 18/3/5 24/3/5
f 26/3/5 24/3/5 25/3/5
f 27/3/6 28/3/6 29/3/6
f 29/3/6 28/3/6 30/3/6
f 30/3/6 28/3/6 31/3/6
f 27/3/6 29/3/6 32/3/6
f 29/2/6 30/2/6 32/2/6
f 30/1/6 31/1/6 33/1/6
f 32/2/6 30/2/6 33/2/6
f 31/3/6 28/3/6 34/3/6
f 33/1/6 31/1/6 34/1/6
f 32/3/6 33/3/6 35/3/6
f 27/3/6 32/3/6 35/3/6
f 33/3/6 34/3/6 35/3/6
f 34/3/6 28/3/6 36/3/6
f 35/3/6 34/3/6 36/3/6
