# MagicaVoxel @ Ephtracy

# material
mtllib Mesa_Sozinha.mtl
usemtl palette

# normals
vn -1 0 0
vn 1 0 0
vn 0 0 1
vn 0 0 -1
vn 0 -1 0
vn 0 1 0

# texcoords
vt 0.689453 0.5
vt 0.693359 0.5
vt 0.697266 0.5
vt 0.970703 0.5
vt 0.974609 0.5
vt 0.978516 0.5
vt 0.982422 0.5

# verts
v -20 0 20
v -20 0 -20
v -20 1 20
v -20 1 -20
v -19 1 18
v -19 1 16
v -19 1 -16
v -19 1 -18
v -19 23 16
v -19 23 -16
v -19 25 18
v -19 25 -18
v -18 1 19
v -18 1 18
v -18 1 16
v -18 1 15
v -18 1 -15
v -18 1 -16
v -18 1 -18
v -18 1 -19
v -18 22 16
v -18 22 15
v -18 22 -15
v -18 22 -16
v -18 23 16
v -18 23 -16
v -18 25 19
v -18 25 18
v -18 25 -18
v -18 25 -19
v -18 26 18
v -18 26 -18
v 14 21 19
v 14 21 16
v 14 21 -16
v 14 21 -19
v 14 22 19
v 14 22 18
v 14 22 16
v 14 22 -16
v 14 22 -18
v 14 22 -19
v 15 1 18
v 15 1 16
v 15 1 -16
v 15 1 -18
v 15 21 18
v 15 21 16
v 15 21 -16
v 15 21 -18
v 16 1 19
v 16 1 18
v 16 1 16
v 16 1 15
v 16 1 -15
v 16 1 -16
v 16 1 -18
v 16 1 -19
v 16 21 19
v 16 21 18
v 16 21 -16
v 16 21 -18
v 16 21 -19
v 16 22 16
v 16 22 15
v 16 22 -15
v 16 22 -16
v -16 1 19
v -16 1 18
v -16 1 16
v -16 1 15
v -16 1 -15
v -16 1 -16
v -16 1 -18
v -16 1 -19
v -16 21 19
v -16 21 18
v -16 21 16
v -16 21 -16
v -16 21 -18
v -16 21 -19
v -16 22 16
v -16 22 15
v -16 22 -15
v -16 22 -16
v -15 1 18
v -15 1 16
v -15 1 -16
v -15 1 -18
v -15 21 18
v -15 21 16
v -15 21 -16
v -15 21 -18
v -14 21 19
v -14 21 16
v -14 21 -16
v -14 21 -19
v -14 22 19
v -14 22 18
v -14 22 16
v -14 22 -16
v -14 22 -18
v -14 22 -19
v 18 1 19
v 18 1 18
v 18 1 16
v 18 1 15
v 18 1 -15
v 18 1 -16
v 18 1 -18
v 18 1 -19
v 18 22 16
v 18 22 15
v 18 22 -15
v 18 22 -16
v 18 25 19
v 18 25 18
v 18 25 -18
v 18 25 -19
v 18 26 18
v 18 26 -18
v 19 1 18
v 19 1 16
v 19 1 -16
v 19 1 -18
v 19 22 16
v 19 22 -16
v 19 25 18
v 19 25 -18
v 20 0 20
v 20 0 -20
v 20 1 20
v 20 1 -20
v -20 0 20
v -20 1 20
v 20 0 20
v 20 1 20
v -18 1 19
v -18 25 19
v -16 1 19
v -16 21 19
v -15 21 19
v -15 22 19
v -14 21 19
v -14 22 19
v 14 21 19
v 14 22 19
v 15 21 19
v 15 22 19
v 16 1 19
v 16 21 19
v 18 1 19
v 18 25 19
v -19 1 18
v -19 25 18
v -18 1 18
v -18 25 18
v -18 26 18
v -16 1 18
v -16 21 18
v -15 1 18
v -15 21 18
v 15 1 18
v 15 21 18
v 16 1 18
v 16 21 18
v 18 1 18
v 18 25 18
v 18 26 18
v 19 1 18
v 19 25 18
v -18 1 -15
v -18 22 -15
v -17 22 -15
v -16 1 -15
v -16 22 -15
v 16 1 -15
v 16 22 -15
v 18 1 -15
v 18 22 -15
v -19 1 -16
v -19 23 -16
v -18 1 -16
v -18 22 -16
v -18 23 -16
v -16 1 -16
v -16 21 -16
v -16 22 -16
v -15 1 -16
v -15 21 -16
v -15 22 -16
v -14 21 -16
v -14 22 -16
v 14 21 -16
v 14 22 -16
v 15 1 -16
v 15 21 -16
v 15 22 -16
v 16 1 -16
v 16 21 -16
v 16 22 -16
v 18 1 -16
v 18 22 -16
v 19 1 -16
v 19 22 -16
v -19 1 16
v -19 23 16
v -18 1 16
v -18 22 16
v -18 23 16
v -16 1 16
v -16 21 16
v -16 22 16
v -15 1 16
v -15 21 16
v -15 22 16
v -14 21 16
v -14 22 16
v 14 21 16
v 14 22 16
v 15 1 16
v 15 21 16
v 16 1 16
v 16 22 16
v 18 1 16
v 18 22 16
v 19 1 16
v 19 22 16
v -18 1 15
v -18 22 15
v -17 22 15
v -16 1 15
v -16 22 15
v 16 1 15
v 16 22 15
v 18 1 15
v 18 22 15
v -19 1 -18
v -19 25 -18
v -18 1 -18
v -18 25 -18
v -18 26 -18
v -16 1 -18
v -16 21 -18
v -15 1 -18
v -15 21 -18
v 15 1 -18
v 15 21 -18
v 16 1 -18
v 16 21 -18
v 18 1 -18
v 18 25 -18
v 18 26 -18
v 19 1 -18
v 19 25 -18
v -18 1 -19
v -18 25 -19
v -16 1 -19
v -16 21 -19
v -15 21 -19
v -15 22 -19
v -14 21 -19
v -14 22 -19
v 14 21 -19
v 14 22 -19
v 15 21 -19
v 15 22 -19
v 16 1 -19
v 16 21 -19
v 18 1 -19
v 18 25 -19
v -20 0 -20
v -20 1 -20
v 20 0 -20
v 20 1 -20
v -20 0 20
v 20 0 20
v -19 0 19
v -18 0 19
v 19 0 19
v -19 0 -19
v -18 0 -19
v 19 0 -19
v -20 0 -20
v 20 0 -20
v -16 21 19
v -15 21 19
v -14 21 19
v 14 21 19
v 15 21 19
v 16 21 19
v -16 21 18
v -15 21 18
v 15 21 18
v 16 21 18
v -15 21 16
v -14 21 16
v 14 21 16
v 15 21 16
v -15 21 -16
v -14 21 -16
v 14 21 -16
v 15 21 -16
v -16 21 -18
v -15 21 -18
v 15 21 -18
v 16 21 -18
v -16 21 -19
v -15 21 -19
v -14 21 -19
v 14 21 -19
v 15 21 -19
v 16 21 -19
v -14 22 19
v 14 22 19
v -14 22 18
v 14 22 18
v -16 22 16
v -15 22 16
v -14 22 16
v 14 22 16
v 16 22 16
v 18 22 16
v 19 22 16
v -18 22 15
v -17 22 15
v -16 22 15
v 16 22 15
v 18 22 15
v -18 22 -15
v -17 22 -15
v -16 22 -15
v 16 22 -15
v 18 22 -15
v -16 22 -16
v -15 22 -16
v -14 22 -16
v 14 22 -16
v 15 22 -16
v 16 22 -16
v 18 22 -16
v 19 22 -16
v -14 22 -18
v 14 22 -18
v -14 22 -19
v 14 22 -19
v -19 23 16
v -18 23 16
v -19 23 -16
v -18 23 -16
v -20 1 20
v 20 1 20
v -19 1 19
v -18 1 19
v -16 1 19
v 16 1 19
v 18 1 19
v 19 1 19
v -19 1 18
v -18 1 18
v -16 1 18
v -15 1 18
v 15 1 18
v 16 1 18
v 18 1 18
v 19 1 18
v -19 1 16
v -18 1 16
v -16 1 16
v -15 1 16
v 15 1 16
v 16 1 16
v 18 1 16
v 19 1 16
v -18 1 15
v -16 1 15
v 16 1 15
v 18 1 15
v -18 1 -15
v -16 1 -15
v 16 1 -15
v 18 1 -15
v -19 1 -16
v -18 1 -16
v -16 1 -16
v -15 1 -16
v 15 1 -16
v 16 1 -16
v 18 1 -16
v 19 1 -16
v -19 1 -18
v -18 1 -18
v -16 1 -18
v -15 1 -18
v 15 1 -18
v 16 1 -18
v 18 1 -18
v 19 1 -18
v -19 1 -19
v -18 1 -19
v -16 1 -19
v 16 1 -19
v 18 1 -19
v 19 1 -19
v -20 1 -20
v 20 1 -20
v -18 25 19
v 18 25 19
v -19 25 18
v -18 25 18
v 18 25 18
v 19 25 18
v -19 25 -18
v -18 25 -18
v 18 25 -18
v 19 25 -18
v -18 25 -19
v 18 25 -19
v -18 26 18
v 18 26 18
v -18 26 -18
v 18 26 -18

# faces
f 3/3/1 2/3/1 1/3/1
f 4/3/1 2/3/1 3/3/1
f 9/6/1 6/6/1 5/6/1
f 10/6/1 8/6/1 7/6/1
f 11/6/1 9/6/1 5/6/1
f 11/6/1 10/6/1 9/6/1
f 12/6/1 8/6/1 10/6/1
f 12/6/1 10/6/1 11/6/1
f 21/7/1 16/7/1 15/7/1
f 22/7/1 16/7/1 21/7/1
f 23/7/1 18/7/1 17/7/1
f 24/7/1 18/7/1 23/7/1
f 25/6/1 22/6/1 21/6/1
f 25/6/1 23/6/1 22/6/1
f 25/6/1 24/6/1 23/6/1
f 26/6/1 24/6/1 25/6/1
f 27/6/1 14/6/1 13/6/1
f 28/6/1 14/6/1 27/6/1
f 29/6/1 20/6/1 19/6/1
f 30/6/1 20/6/1 29/6/1
f 31/4/1 29/4/1 28/4/1
f 32/4/1 29/4/1 31/4/1
f 37/7/1 34/7/1 33/7/1
f 38/7/1 34/7/1 37/7/1
f 39/7/1 34/7/1 38/7/1
f 40/7/1 36/7/1 35/7/1
f 41/7/1 36/7/1 40/7/1
f 42/7/1 36/7/1 41/7/1
f 47/7/1 44/7/1 43/7/1
f 48/7/1 44/7/1 47/7/1
f 49/7/1 46/7/1 45/7/1
f 50/7/1 46/7/1 49/7/1
f 59/6/1 52/6/1 51/6/1
f 60/6/1 52/6/1 59/6/1
f 61/7/1 56/7/1 55/7/1
f 62/6/1 58/6/1 57/6/1
f 63/6/1 58/6/1 62/6/1
f 64/6/1 54/6/1 53/6/1
f 65/6/1 54/6/1 64/6/1
f 66/7/1 61/7/1 55/7/1
f 67/7/1 61/7/1 66/7/1
f 68/6/2 69/6/2 76/6/2
f 76/6/2 69/6/2 77/6/2
f 70/7/2 71/7/2 78/7/2
f 72/7/2 73/7/2 79/7/2
f 74/6/2 75/6/2 80/6/2
f 80/6/2 75/6/2 81/6/2
f 78/7/2 71/7/2 82/7/2
f 82/7/2 71/7/2 83/7/2
f 72/7/2 79/7/2 84/7/2
f 84/7/2 79/7/2 85/7/2
f 86/7/2 87/7/2 90/7/2
f 90/7/2 87/7/2 91/7/2
f 88/7/2 89/7/2 92/7/2
f 92/7/2 89/7/2 93/7/2
f 94/7/2 95/7/2 98/7/2
f 98/7/2 95/7/2 99/7/2
f 99/7/2 95/7/2 100/7/2
f 96/7/2 97/7/2 101/7/2
f 101/7/2 97/7/2 102/7/2
f 102/7/2 97/7/2 103/7/2
f 106/6/2 107/6/2 112/6/2
f 112/6/2 107/6/2 113/6/2
f 108/7/2 109/7/2 114/7/2
f 114/7/2 109/7/2 115/7/2
f 104/6/2 105/6/2 116/6/2
f 116/6/2 105/6/2 117/6/2
f 110/6/2 111/6/2 118/6/2
f 118/6/2 111/6/2 119/6/2
f 117/4/2 118/4/2 120/4/2
f 120/4/2 118/4/2 121/4/2
f 122/6/2 123/6/2 126/6/2
f 124/6/2 125/6/2 127/6/2
f 122/6/2 126/6/2 128/6/2
f 126/6/2 127/6/2 128/6/2
f 127/6/2 125/6/2 129/6/2
f 128/6/2 127/6/2 129/6/2
f 130/3/2 131/3/2 132/3/2
f 132/3/2 131/3/2 133/3/2
f 136/3/3 135/3/3 134/3/3
f 137/3/3 135/3/3 136/3/3
f 140/6/3 139/6/3 138/6/3
f 141/6/3 139/6/3 140/6/3
f 142/6/3 139/6/3 141/6/3
f 143/6/3 139/6/3 142/6/3
f 144/7/3 143/7/3 142/7/3
f 145/6/3 139/6/3 143/6/3
f 145/7/3 143/7/3 144/7/3
f 147/6/3 139/6/3 145/6/3
f 148/7/3 147/7/3 146/7/3
f 149/6/3 139/6/3 147/6/3
f 149/7/3 147/7/3 148/7/3
f 151/6/3 149/6/3 148/6/3
f 152/6/3 151/6/3 150/6/3
f 153/6/3 139/6/3 149/6/3
f 153/6/3 151/6/3 152/6/3
f 153/6/3 149/6/3 151/6/3
f 156/6/3 155/6/3 154/6/3
f 157/6/3 155/6/3 156/6/3
f 161/7/3 160/7/3 159/7/3
f 162/7/3 160/7/3 161/7/3
f 165/7/3 164/7/3 163/7/3
f 166/7/3 164/7/3 165/7/3
f 168/4/3 158/4/3 157/4/3
f 169/4/3 158/4/3 168/4/3
f 170/6/3 168/6/3 167/6/3
f 171/6/3 168/6/3 170/6/3
f 174/7/3 173/7/3 172/7/3
f 175/7/3 174/7/3 172/7/3
f 176/7/3 174/7/3 175/7/3
f 179/7/3 178/7/3 177/7/3
f 180/7/3 178/7/3 179/7/3
f 183/6/3 182/6/3 181/6/3
f 184/6/3 182/6/3 183/6/3
f 185/6/3 182/6/3 184/6/3
f 189/7/3 187/7/3 186/7/3
f 190/4/3 188/4/3 187/4/3
f 190/7/3 187/7/3 189/7/3
f 191/4/3 188/4/3 190/4/3
f 192/7/3 191/7/3 190/7/3
f 193/7/3 191/7/3 192/7/3
f 197/7/3 195/7/3 194/7/3
f 198/7/3 195/7/3 197/7/3
f 199/7/3 197/7/3 196/7/3
f 200/4/3 198/4/3 197/4/3
f 200/7/3 197/7/3 199/7/3
f 201/4/3 198/4/3 200/4/3
f 204/6/3 203/6/3 202/6/3
f 205/6/3 203/6/3 204/6/3
f 206/6/4 207/6/4 208/6/4
f 208/6/4 207/6/4 209/6/4
f 209/6/4 207/6/4 210/6/4
f 211/7/4 212/7/4 214/7/4
f 212/4/4 213/4/4 215/4/4
f 214/7/4 212/7/4 215/7/4
f 215/4/4 213/4/4 216/4/4
f 215/7/4 216/7/4 217/7/4
f 217/7/4 216/7/4 218/7/4
f 219/7/4 220/7/4 222/7/4
f 221/7/4 222/7/4 223/7/4
f 222/7/4 220/7/4 224/7/4
f 223/7/4 222/7/4 224/7/4
f 225/6/4 226/6/4 227/6/4
f 227/6/4 226/6/4 228/6/4
f 229/7/4 230/7/4 231/7/4
f 229/7/4 231/7/4 232/7/4
f 232/7/4 231/7/4 233/7/4
f 234/6/4 235/6/4 236/6/4
f 236/6/4 235/6/4 237/6/4
f 238/6/4 239/6/4 240/6/4
f 240/6/4 239/6/4 241/6/4
f 243/7/4 244/7/4 245/7/4
f 245/7/4 244/7/4 246/7/4
f 247/7/4 248/7/4 249/7/4
f 249/7/4 248/7/4 250/7/4
f 241/4/4 242/4/4 252/4/4
f 252/4/4 242/4/4 253/4/4
f 251/6/4 252/6/4 254/6/4
f 254/6/4 252/6/4 255/6/4
f 256/6/4 257/6/4 258/6/4
f 258/6/4 257/6/4 259/6/4
f 259/6/4 257/6/4 260/6/4
f 260/6/4 257/6/4 261/6/4
f 260/7/4 261/7/4 262/7/4
f 261/6/4 257/6/4 263/6/4
f 262/7/4 261/7/4 263/7/4
f 263/6/4 257/6/4 265/6/4
f 264/7/4 265/7/4 266/7/4
f 265/6/4 257/6/4 267/6/4
f 266/7/4 265/7/4 267/7/4
f 266/6/4 267/6/4 269/6/4
f 268/6/4 269/6/4 270/6/4
f 267/6/4 257/6/4 271/6/4
f 270/6/4 269/6/4 271/6/4
f 269/6/4 267/6/4 271/6/4
f 272/3/4 273/3/4 274/3/4
f 274/3/4 273/3/4 275/3/4
f 278/3/5 277/3/5 276/3/5
f 279/3/5 277/3/5 278/3/5
f 280/3/5 277/3/5 279/3/5
f 281/3/5 278/3/5 276/3/5
f 281/2/5 279/2/5 278/2/5
f 282/1/5 280/1/5 279/1/5
f 282/2/5 279/2/5 281/2/5
f 283/3/5 277/3/5 280/3/5
f 283/1/5 280/1/5 282/1/5
f 284/3/5 282/3/5 281/3/5
f 284/3/5 281/3/5 276/3/5
f 284/3/5 283/3/5 282/3/5
f 285/3/5 277/3/5 283/3/5
f 285/3/5 283/3/5 284/3/5
f 292/6/5 287/6/5 286/6/5
f 293/7/5 288/7/5 287/7/5
f 293/6/5 287/6/5 292/6/5
f 294/6/5 291/6/5 290/6/5
f 294/7/5 290/7/5 289/7/5
f 295/6/5 291/6/5 294/6/5
f 296/7/5 288/7/5 293/7/5
f 297/7/5 288/7/5 296/7/5
f 298/7/5 294/7/5 289/7/5
f 299/7/5 294/7/5 298/7/5
f 305/7/5 301/7/5 300/7/5
f 306/7/5 303/7/5 302/7/5
f 308/6/5 305/6/5 304/6/5
f 309/7/5 301/7/5 305/7/5
f 309/6/5 305/6/5 308/6/5
f 310/7/5 301/7/5 309/7/5
f 311/7/5 306/7/5 302/7/5
f 312/6/5 307/6/5 306/6/5
f 312/7/5 306/7/5 311/7/5
f 313/6/5 307/6/5 312/6/5
f 316/6/5 315/6/5 314/6/5
f 317/6/5 315/6/5 316/6/5
f 320/7/5 317/7/5 316/7/5
f 321/7/5 317/7/5 320/7/5
f 327/7/5 319/7/5 318/7/5
f 327/7/5 321/7/5 320/7/5
f 327/7/5 320/7/5 319/7/5
f 327/7/5 322/7/5 321/7/5
f 328/7/5 322/7/5 327/7/5
f 329/6/5 324/6/5 323/6/5
f 330/6/5 326/6/5 325/6/5
f 331/7/5 329/7/5 328/7/5
f 331/6/5 326/6/5 330/6/5
f 331/7/5 328/7/5 327/7/5
f 331/7/5 327/7/5 326/7/5
f 332/7/5 329/7/5 331/7/5
f 333/7/5 329/7/5 332/7/5
f 334/6/5 324/6/5 329/6/5
f 334/7/5 329/7/5 333/7/5
f 335/7/5 333/7/5 332/7/5
f 336/7/5 333/7/5 335/7/5
f 337/7/5 333/7/5 336/7/5
f 338/7/5 333/7/5 337/7/5
f 339/7/5 333/7/5 338/7/5
f 340/7/5 333/7/5 339/7/5
f 341/6/5 324/6/5 334/6/5
f 342/6/5 324/6/5 341/6/5
f 343/7/5 338/7/5 337/7/5
f 344/7/5 338/7/5 343/7/5
f 345/6/5 344/6/5 343/6/5
f 346/6/5 344/6/5 345/6/5
f 349/6/5 348/6/5 347/6/5
f 350/6/5 348/6/5 349/6/5
f 351/3/6 352/3/6 353/3/6
f 353/3/6 352/3/6 354/3/6
f 354/3/6 352/3/6 355/3/6
f 355/3/6 352/3/6 356/3/6
f 356/3/6 352/3/6 357/3/6
f 357/3/6 352/3/6 358/3/6
f 351/3/6 353/3/6 359/3/6
f 353/2/6 354/2/6 359/2/6
f 359/2/6 354/2/6 360/2/6
f 355/1/6 356/1/6 361/1/6
f 361/1/6 356/1/6 362/1/6
f 362/1/6 356/1/6 363/1/6
f 363/1/6 356/1/6 364/1/6
f 357/1/6 358/1/6 365/1/6
f 358/3/6 352/3/6 366/3/6
f 365/1/6 358/1/6 366/1/6
f 351/3/6 359/3/6 367/3/6
f 362/1/6 363/1/6 370/1/6
f 370/1/6 363/1/6 371/1/6
f 366/3/6 352/3/6 374/3/6
f 367/2/6 368/2/6 375/2/6
f 371/1/6 372/1/6 376/1/6
f 369/1/6 370/1/6 376/1/6
f 370/1/6 371/1/6 376/1/6
f 376/1/6 372/1/6 377/1/6
f 373/1/6 374/1/6 378/1/6
f 367/2/6 375/2/6 379/2/6
f 377/1/6 378/1/6 379/1/6
f 376/1/6 377/1/6 379/1/6
f 375/1/6 376/1/6 379/1/6
f 379/1/6 378/1/6 380/1/6
f 380/1/6 378/1/6 381/1/6
f 378/1/6 374/1/6 382/1/6
f 381/1/6 378/1/6 382/1/6
f 351/3/6 367/3/6 383/3/6
f 367/2/6 379/2/6 383/2/6
f 383/2/6 379/2/6 384/2/6
f 380/1/6 381/1/6 385/1/6
f 385/1/6 381/1/6 386/1/6
f 386/1/6 381/1/6 387/1/6
f 387/1/6 381/1/6 388/1/6
f 382/1/6 374/1/6 389/1/6
f 374/3/6 352/3/6 390/3/6
f 389/1/6 374/1/6 390/1/6
f 351/3/6 383/3/6 391/3/6
f 386/1/6 387/1/6 394/1/6
f 394/1/6 387/1/6 395/1/6
f 390/3/6 352/3/6 398/3/6
f 391/2/6 392/2/6 399/2/6
f 351/3/6 391/3/6 399/3/6
f 399/2/6 392/2/6 400/2/6
f 395/1/6 396/1/6 401/1/6
f 393/1/6 394/1/6 401/1/6
f 394/1/6 395/1/6 401/1/6
f 401/1/6 396/1/6 402/1/6
f 397/1/6 398/1/6 403/1/6
f 398/3/6 352/3/6 404/3/6
f 403/1/6 398/1/6 404/1/6
f 399/3/6 400/3/6 405/3/6
f 401/3/6 402/3/6 405/3/6
f 403/3/6 404/3/6 405/3/6
f 402/3/6 403/3/6 405/3/6
f 400/3/6 401/3/6 405/3/6
f 351/3/6 399/3/6 405/3/6
f 404/3/6 352/3/6 406/3/6
f 405/3/6 404/3/6 406/3/6
f 407/6/6 408/6/6 410/6/6
f 410/6/6 408/6/6 411/6/6
f 409/6/6 410/6/6 413/6/6
f 413/6/6 410/6/6 414/6/6
f 411/6/6 412/6/6 415/6/6
f 415/6/6 412/6/6 416/6/6
f 414/6/6 415/6/6 417/6/6
f 417/6/6 415/6/6 418/6/6
f 419/4/6 420/4/6 421/4/6
f 421/4/6 420/4/6 422/4/6
