# MagicaVoxel @ Ephtracy

# material
mtllib Mesa_End_1.mtl
usemtl palette

# normals
vn -1 0 0
vn 1 0 0
vn 0 0 1
vn 0 0 -1
vn 0 -1 0
vn 0 1 0

# texcoords
vt 0.689453 0.5
vt 0.693359 0.5
vt 0.697266 0.5
vt 0.970703 0.5
vt 0.974609 0.5
vt 0.978516 0.5
vt 0.982422 0.5

# verts
v -20 0 20
v -20 0 -20
v -20 1 20
v -20 1 -20
v 0 1 -14
v 0 1 -18
v 0 1 -19
v 0 23 6
v 0 23 -14
v 0 25 6
v 0 25 -18
v 0 25 -19
v 1 1 -13
v 1 1 -14
v 1 1 -19
v 1 1 -20
v 1 11 -19
v 1 11 -20
v 1 16 -19
v 1 16 -20
v 1 23 7
v 1 23 6
v 1 23 -13
v 1 23 -14
v 1 25 6
v 1 25 -18
v 1 25 -19
v 1 25 -20
v 1 26 7
v 1 26 -20
v 2 23 8
v 2 23 7
v 2 25 8
v 2 25 7
v 20 0 20
v 20 0 -20
v 20 1 20
v 20 1 -13
v 20 1 -14
v 20 1 -19
v 20 1 -20
v 20 11 -18
v 20 11 -19
v 20 11 -20
v 20 16 -18
v 20 16 -19
v 20 16 -20
v 20 23 8
v 20 23 7
v 20 23 -13
v 20 23 -14
v 20 25 8
v 20 25 7
v 20 25 -19
v 20 25 -20
v 20 26 7
v 20 26 -20
v -20 0 20
v -20 1 20
v 20 0 20
v 20 1 20
v 2 23 8
v 2 25 8
v 20 23 8
v 20 25 8
v 1 23 7
v 1 26 7
v 2 23 7
v 2 25 7
v 20 25 7
v 20 26 7
v 0 23 6
v 0 25 6
v 1 23 6
v 1 25 6
v 1 1 -13
v 1 23 -13
v 19 1 -13
v 20 1 -13
v 20 23 -13
v 0 1 -14
v 0 23 -14
v 1 1 -14
v 1 23 -14
v 0 1 -19
v 0 25 -19
v 1 1 -19
v 1 11 -19
v 1 16 -19
v 1 25 -19
v 20 11 -19
v 20 16 -19
v -20 0 -20
v -20 1 -20
v 1 1 -20
v 1 11 -20
v 1 16 -20
v 1 25 -20
v 1 26 -20
v 20 0 -20
v 20 1 -20
v 20 11 -20
v 20 16 -20
v 20 25 -20
v 20 26 -20
v -20 0 20
v 20 0 20
v -19 0 19
v -18 0 19
v 19 0 19
v -19 0 -19
v -18 0 -19
v 19 0 -19
v -20 0 -20
v 20 0 -20
v 1 16 -19
v 20 16 -19
v 1 16 -20
v 20 16 -20
v 2 23 8
v 20 23 8
v 1 23 7
v 2 23 7
v 20 23 7
v 0 23 6
v 1 23 6
v 1 23 -13
v 20 23 -13
v 0 23 -14
v 1 23 -14
v -20 1 20
v 20 1 20
v -19 1 19
v -18 1 19
v 19 1 19
v 1 1 -13
v 19 1 -13
v 20 1 -13
v 0 1 -14
v 1 1 -14
v 0 1 -18
v -19 1 -19
v -18 1 -19
v 0 1 -19
v 1 1 -19
v -20 1 -20
v 1 1 -20
v 1 11 -19
v 20 11 -19
v 1 11 -20
v 20 11 -20
v 2 25 8
v 20 25 8
v 2 25 7
v 20 25 7
v 0 25 6
v 1 25 6
v 0 25 -18
v 1 25 -18
v 0 25 -19
v 1 25 -19
v 1 26 7
v 20 26 7
v 1 26 -20
v 20 26 -20

# faces
f 3/3/1 2/3/1 1/3/1
f 4/3/1 2/3/1 3/3/1
f 9/5/1 6/5/1 5/5/1
f 10/5/1 9/5/1 8/5/1
f 11/7/1 7/7/1 6/7/1
f 11/5/1 9/5/1 10/5/1
f 11/5/1 6/5/1 9/5/1
f 12/7/1 7/7/1 11/7/1
f 17/6/1 16/6/1 15/6/1
f 18/6/1 16/6/1 17/6/1
f 23/5/1 14/5/1 13/5/1
f 24/5/1 14/5/1 23/5/1
f 25/4/1 22/4/1 21/4/1
f 27/6/1 20/6/1 19/6/1
f 28/6/1 20/6/1 27/6/1
f 29/4/1 25/4/1 21/4/1
f 29/4/1 26/4/1 25/4/1
f 29/4/1 28/4/1 27/4/1
f 29/4/1 27/4/1 26/4/1
f 30/4/1 28/4/1 29/4/1
f 33/5/1 32/5/1 31/5/1
f 34/5/1 32/5/1 33/5/1
f 35/3/2 36/3/2 37/3/2
f 37/3/2 36/3/2 38/3/2
f 38/3/2 36/3/2 39/3/2
f 39/3/2 36/3/2 40/3/2
f 40/3/2 36/3/2 41/3/2
f 39/4/2 40/4/2 42/4/2
f 40/6/2 41/6/2 43/6/2
f 42/4/2 40/4/2 43/4/2
f 43/6/2 41/6/2 44/6/2
f 39/4/2 42/4/2 45/4/2
f 42/7/2 43/7/2 45/7/2
f 45/7/2 43/7/2 46/7/2
f 38/5/2 39/5/2 50/5/2
f 39/4/2 45/4/2 51/4/2
f 45/4/2 46/4/2 51/4/2
f 50/5/2 39/5/2 51/5/2
f 48/5/2 49/5/2 52/5/2
f 49/4/2 50/4/2 53/4/2
f 52/5/2 49/5/2 53/5/2
f 50/4/2 51/4/2 53/4/2
f 51/4/2 46/4/2 54/4/2
f 53/4/2 51/4/2 54/4/2
f 46/6/2 47/6/2 54/6/2
f 54/6/2 47/6/2 55/6/2
f 53/4/2 54/4/2 56/4/2
f 54/4/2 55/4/2 56/4/2
f 56/4/2 55/4/2 57/4/2
f 60/3/3 59/3/3 58/3/3
f 61/3/3 59/3/3 60/3/3
f 64/5/3 63/5/3 62/5/3
f 65/5/3 63/5/3 64/5/3
f 68/4/3 67/4/3 66/4/3
f 69/4/3 67/4/3 68/4/3
f 70/4/3 67/4/3 69/4/3
f 71/4/3 67/4/3 70/4/3
f 74/5/3 73/5/3 72/5/3
f 75/5/3 73/5/3 74/5/3
f 78/5/3 77/5/3 76/5/3
f 79/5/3 77/5/3 78/5/3
f 80/5/3 77/5/3 79/5/3
f 83/5/3 82/5/3 81/5/3
f 84/5/3 82/5/3 83/5/3
f 85/7/4 86/7/4 87/7/4
f 87/7/4 86/7/4 88/7/4
f 88/7/4 86/7/4 89/7/4
f 89/7/4 86/7/4 90/7/4
f 88/7/4 89/7/4 91/7/4
f 91/7/4 89/7/4 92/7/4
f 93/3/4 94/3/4 95/3/4
f 93/3/4 95/3/4 100/3/4
f 95/6/4 96/6/4 101/6/4
f 100/3/4 95/3/4 101/3/4
f 101/6/4 96/6/4 102/6/4
f 97/6/4 98/6/4 103/6/4
f 98/4/4 99/4/4 104/4/4
f 103/6/4 98/6/4 104/6/4
f 104/4/4 99/4/4 105/4/4
f 108/3/5 107/3/5 106/3/5
f 109/3/5 107/3/5 108/3/5
f 110/3/5 107/3/5 109/3/5
f 111/3/5 108/3/5 106/3/5
f 111/2/5 109/2/5 108/2/5
f 112/1/5 110/1/5 109/1/5
f 112/2/5 109/2/5 111/2/5
f 113/3/5 107/3/5 110/3/5
f 113/1/5 110/1/5 112/1/5
f 114/3/5 112/3/5 111/3/5
f 114/3/5 111/3/5 106/3/5
f 114/3/5 113/3/5 112/3/5
f 115/3/5 107/3/5 113/3/5
f 115/3/5 113/3/5 114/3/5
f 118/6/5 117/6/5 116/6/5
f 119/6/5 117/6/5 118/6/5
f 123/5/5 121/5/5 120/5/5
f 124/5/5 121/5/5 123/5/5
f 126/4/5 123/4/5 122/4/5
f 126/4/5 124/4/5 123/4/5
f 127/4/5 124/4/5 126/4/5
f 127/5/5 126/5/5 125/5/5
f 128/4/5 124/4/5 127/4/5
f 129/5/5 127/5/5 125/5/5
f 130/5/5 127/5/5 129/5/5
f 131/3/6 132/3/6 133/3/6
f 133/3/6 132/3/6 134/3/6
f 134/3/6 132/3/6 135/3/6
f 134/1/6 135/1/6 136/1/6
f 135/3/6 132/3/6 137/3/6
f 136/1/6 135/1/6 137/1/6
f 137/3/6 132/3/6 138/3/6
f 134/1/6 136/1/6 139/1/6
f 139/1/6 136/1/6 140/1/6
f 134/1/6 139/1/6 141/1/6
f 131/3/6 133/3/6 142/3/6
f 133/2/6 134/2/6 142/2/6
f 134/1/6 141/1/6 143/1/6
f 142/2/6 134/2/6 143/2/6
f 143/1/6 141/1/6 144/1/6
f 143/3/6 144/3/6 146/3/6
f 144/3/6 145/3/6 146/3/6
f 142/3/6 143/3/6 146/3/6
f 131/3/6 142/3/6 146/3/6
f 146/3/6 145/3/6 147/3/6
f 148/6/6 149/6/6 150/6/6
f 150/6/6 149/6/6 151/6/6
f 152/5/6 153/5/6 154/5/6
f 154/5/6 153/5/6 155/5/6
f 156/5/6 157/5/6 158/5/6
f 158/5/6 157/5/6 159/5/6
f 158/7/6 159/7/6 160/7/6
f 160/7/6 159/7/6 161/7/6
f 162/4/6 163/4/6 164/4/6
f 164/4/6 163/4/6 165/4/6
