# MagicaVoxel @ Ephtracy

# material
mtllib Mesa_Curva.mtl
usemtl palette

# normals
vn -1 0 0
vn 1 0 0
vn 0 0 1
vn 0 0 -1
vn 0 -1 0
vn 0 1 0

# texcoords
vt 0.689453 0.5
vt 0.693359 0.5
vt 0.697266 0.5
vt 0.970703 0.5
vt 0.974609 0.5
vt 0.978516 0.5
vt 0.982422 0.5

# verts
v -20 0 20
v -20 0 -20
v -20 1 20
v -20 1 -13
v -20 1 -14
v -20 1 -18
v -20 1 -20
v -20 11 -18
v -20 11 -19
v -20 11 -20
v -20 16 -18
v -20 16 -19
v -20 16 -20
v -20 23 8
v -20 23 7
v -20 23 -13
v -20 23 -14
v -20 25 8
v -20 25 7
v -20 25 -19
v -20 25 -20
v -20 26 7
v -20 26 -20
v -8 23 20
v -8 23 8
v -8 25 20
v -8 25 8
v -7 25 20
v -7 25 7
v -7 26 20
v -7 26 7
v 13 1 20
v 13 1 19
v 13 1 -13
v 13 23 20
v 13 23 -13
v 19 11 20
v 19 11 -19
v 19 16 20
v 19 16 -19
v 20 0 20
v 20 0 -20
v 20 1 20
v 20 1 -20
v 20 11 20
v 20 11 -20
v 20 16 20
v 20 16 -20
v 20 25 20
v 20 25 -20
v 20 26 20
v 20 26 -20
v -20 0 20
v -20 1 20
v -8 23 20
v -8 25 20
v -7 23 20
v -7 25 20
v -7 26 20
v 13 1 20
v 13 23 20
v 14 1 20
v 14 23 20
v 18 11 20
v 18 16 20
v 19 1 20
v 19 11 20
v 19 16 20
v 19 25 20
v 20 0 20
v 20 1 20
v 20 11 20
v 20 16 20
v 20 25 20
v 20 26 20
v -20 23 8
v -20 25 8
v -8 23 8
v -8 25 8
v -20 25 7
v -20 26 7
v -7 25 7
v -7 26 7
v -20 1 -13
v -20 23 -13
v -19 1 -13
v -18 1 -13
v 13 1 -13
v 13 23 -13
v -20 11 -19
v -20 16 -19
v 19 11 -19
v 19 16 -19
v -20 0 -20
v -20 1 -20
v -20 11 -20
v -20 16 -20
v -20 25 -20
v -20 26 -20
v 20 0 -20
v 20 1 -20
v 20 11 -20
v 20 16 -20
v 20 25 -20
v 20 26 -20
v -20 0 20
v 20 0 20
v -19 0 19
v -18 0 19
v 19 0 19
v -19 0 -19
v -18 0 -19
v 19 0 -19
v -20 0 -20
v 20 0 -20
v 19 16 20
v 20 16 20
v -20 16 -19
v 19 16 -19
v -20 16 -20
v 20 16 -20
v -8 23 20
v -7 23 20
v 13 23 20
v -20 23 8
v -8 23 8
v -7 23 8
v -20 23 7
v -8 23 7
v -20 23 -13
v 13 23 -13
v -20 1 20
v 13 1 20
v -19 1 19
v -18 1 19
v 13 1 19
v -20 1 -13
v -19 1 -13
v -18 1 -13
v 13 1 -13
v 19 11 20
v 20 11 20
v -20 11 -19
v 19 11 -19
v -20 11 -20
v 20 11 -20
v -8 25 20
v -7 25 20
v -20 25 8
v -8 25 8
v -20 25 7
v -7 25 7
v -7 26 20
v 20 26 20
v -20 26 7
v -7 26 7
v -20 26 -20
v 20 26 -20

# faces
f 3/3/1 2/3/1 1/3/1
f 4/3/1 2/3/1 3/3/1
f 5/3/1 2/3/1 4/3/1
f 6/3/1 2/3/1 5/3/1
f 7/3/1 2/3/1 6/3/1
f 8/4/1 6/4/1 5/4/1
f 8/6/1 7/6/1 6/6/1
f 9/6/1 7/6/1 8/6/1
f 10/6/1 7/6/1 9/6/1
f 11/4/1 8/4/1 5/4/1
f 11/7/1 9/7/1 8/7/1
f 12/7/1 9/7/1 11/7/1
f 16/5/1 5/5/1 4/5/1
f 17/4/1 11/4/1 5/4/1
f 17/4/1 12/4/1 11/4/1
f 17/5/1 5/5/1 16/5/1
f 18/5/1 15/5/1 14/5/1
f 19/4/1 16/4/1 15/4/1
f 19/5/1 15/5/1 18/5/1
f 19/4/1 17/4/1 16/4/1
f 20/4/1 12/4/1 17/4/1
f 20/4/1 17/4/1 19/4/1
f 20/6/1 13/6/1 12/6/1
f 21/6/1 13/6/1 20/6/1
f 22/4/1 20/4/1 19/4/1
f 22/4/1 21/4/1 20/4/1
f 23/4/1 21/4/1 22/4/1
f 26/5/1 25/5/1 24/5/1
f 27/5/1 25/5/1 26/5/1
f 30/4/1 29/4/1 28/4/1
f 31/4/1 29/4/1 30/4/1
f 35/5/1 33/5/1 32/5/1
f 35/5/1 34/5/1 33/5/1
f 36/5/1 34/5/1 35/5/1
f 37/7/2 38/7/2 39/7/2
f 39/7/2 38/7/2 40/7/2
f 41/3/2 42/3/2 43/3/2
f 43/3/2 42/3/2 44/3/2
f 43/6/2 44/6/2 45/6/2
f 45/6/2 44/6/2 46/6/2
f 47/6/2 48/6/2 49/6/2
f 49/6/2 48/6/2 50/6/2
f 49/4/2 50/4/2 51/4/2
f 51/4/2 50/4/2 52/4/2
f 57/5/3 56/5/3 55/5/3
f 58/5/3 56/5/3 57/5/3
f 60/3/3 54/3/3 53/3/3
f 61/4/3 59/4/3 58/4/3
f 61/4/3 58/4/3 57/4/3
f 62/3/3 60/3/3 53/3/3
f 62/5/3 61/5/3 60/5/3
f 63/4/3 59/4/3 61/4/3
f 63/5/3 61/5/3 62/5/3
f 64/4/3 63/4/3 62/4/3
f 65/4/3 63/4/3 64/4/3
f 66/3/3 62/3/3 53/3/3
f 66/4/3 64/4/3 62/4/3
f 67/7/3 65/7/3 64/7/3
f 67/4/3 64/4/3 66/4/3
f 68/4/3 63/4/3 65/4/3
f 68/7/3 65/7/3 67/7/3
f 69/4/3 59/4/3 63/4/3
f 69/4/3 63/4/3 68/4/3
f 70/3/3 66/3/3 53/3/3
f 71/6/3 67/6/3 66/6/3
f 71/3/3 66/3/3 70/3/3
f 72/6/3 67/6/3 71/6/3
f 73/6/3 69/6/3 68/6/3
f 74/4/3 59/4/3 69/4/3
f 74/6/3 69/6/3 73/6/3
f 75/4/3 59/4/3 74/4/3
f 78/5/3 77/5/3 76/5/3
f 79/5/3 77/5/3 78/5/3
f 82/4/3 81/4/3 80/4/3
f 83/4/3 81/4/3 82/4/3
f 86/5/3 85/5/3 84/5/3
f 87/5/3 85/5/3 86/5/3
f 88/5/3 85/5/3 87/5/3
f 89/5/3 85/5/3 88/5/3
f 90/7/4 91/7/4 92/7/4
f 92/7/4 91/7/4 93/7/4
f 94/3/4 95/3/4 100/3/4
f 95/6/4 96/6/4 101/6/4
f 100/3/4 95/3/4 101/3/4
f 101/6/4 96/6/4 102/6/4
f 97/6/4 98/6/4 103/6/4
f 98/4/4 99/4/4 104/4/4
f 103/6/4 98/6/4 104/6/4
f 104/4/4 99/4/4 105/4/4
f 108/3/5 107/3/5 106/3/5
f 109/3/5 107/3/5 108/3/5
f 110/3/5 107/3/5 109/3/5
f 111/3/5 108/3/5 106/3/5
f 111/2/5 109/2/5 108/2/5
f 112/1/5 110/1/5 109/1/5
f 112/2/5 109/2/5 111/2/5
f 113/3/5 107/3/5 110/3/5
f 113/1/5 110/1/5 112/1/5
f 114/3/5 112/3/5 111/3/5
f 114/3/5 111/3/5 106/3/5
f 114/3/5 113/3/5 112/3/5
f 115/3/5 107/3/5 113/3/5
f 115/3/5 113/3/5 114/3/5
f 119/6/5 117/6/5 116/6/5
f 120/6/5 119/6/5 118/6/5
f 121/6/5 117/6/5 119/6/5
f 121/6/5 119/6/5 120/6/5
f 126/5/5 123/5/5 122/5/5
f 127/4/5 124/4/5 123/4/5
f 127/5/5 123/5/5 126/5/5
f 128/5/5 126/5/5 125/5/5
f 129/4/5 127/4/5 126/4/5
f 129/5/5 126/5/5 128/5/5
f 130/4/5 129/4/5 128/4/5
f 131/4/5 124/4/5 127/4/5
f 131/4/5 129/4/5 130/4/5
f 131/4/5 127/4/5 129/4/5
f 132/3/6 133/3/6 134/3/6
f 134/3/6 133/3/6 135/3/6
f 135/3/6 133/3/6 136/3/6
f 132/3/6 134/3/6 137/3/6
f 134/2/6 135/2/6 138/2/6
f 137/3/6 134/3/6 138/3/6
f 135/1/6 136/1/6 139/1/6
f 138/2/6 135/2/6 139/2/6
f 139/1/6 136/1/6 140/1/6
f 141/6/6 142/6/6 144/6/6
f 143/6/6 144/6/6 145/6/6
f 144/6/6 142/6/6 146/6/6
f 145/6/6 144/6/6 146/6/6
f 147/5/6 148/5/6 150/5/6
f 149/5/6 150/5/6 151/5/6
f 150/5/6 148/5/6 152/5/6
f 151/5/6 150/5/6 152/5/6
f 153/4/6 154/4/6 156/4/6
f 155/4/6 156/4/6 157/4/6
f 156/4/6 154/4/6 158/4/6
f 157/4/6 156/4/6 158/4/6
