# MagicaVoxel @ Ephtracy

# material
mtllib Parede_Curva_2.mtl
usemtl palette

# normals
vn -1 0 0
vn 1 0 0
vn 0 0 1
vn 0 0 -1
vn 0 -1 0
vn 0 1 0

# texcoords
vt 0.349609 0.5
vt 0.408203 0.5
vt 0.412109 0.5
vt 0.416016 0.5
vt 0.689453 0.5
vt 0.693359 0.5
vt 0.697266 0.5
vt 0.970703 0.5
vt 0.994141 0.5

# verts
v -20 0 20
v -20 0 -20
v -20 1 20
v -20 1 4
v -20 1 3
v -20 1 -3
v -20 1 -4
v -20 1 -20
v -20 6 4
v -20 6 3
v -20 6 -3
v -20 6 -4
v -20 7 4
v -20 7 3
v -20 7 -3
v -20 7 -4
v -20 61 4
v -20 61 3
v -20 61 -3
v -20 61 -4
v -20 64 4
v -20 64 3
v -20 64 -3
v -20 64 -4
v -20 71 4
v -20 71 3
v -20 71 -3
v -20 71 -4
v -4 1 20
v -4 1 19
v -4 1 4
v -4 6 20
v -4 6 4
v -4 7 20
v -4 7 4
v -4 61 20
v -4 61 4
v -4 64 20
v -4 64 4
v -4 66 11
v -4 66 10
v -4 67 11
v -4 67 10
v -4 68 11
v -4 68 10
v -4 70 16
v -4 70 15
v -4 70 10
v -4 70 9
v -4 71 20
v -4 71 16
v -4 71 15
v -4 71 11
v -4 71 9
v -4 71 4
v 4 1 20
v 4 1 19
v 4 1 -4
v 4 6 20
v 4 6 -4
v 4 7 20
v 4 7 -4
v 4 61 20
v 4 61 -4
v 4 64 20
v 4 64 -4
v 4 65 14
v 4 65 13
v 4 65 -3
v 4 65 -4
v 4 66 14
v 4 66 13
v 4 66 12
v 4 66 1
v 4 66 -0
v 4 67 13
v 4 67 12
v 4 67 1
v 4 67 -0
v 4 67 -3
v 4 67 -4
v 4 68 13
v 4 68 11
v 4 69 -3
v 4 69 -4
v 4 70 11
v 4 70 10
v 4 71 20
v 4 71 13
v 4 71 10
v 4 71 -3
v 4 71 -4
v 20 0 20
v 20 0 -20
v 20 1 20
v 20 1 -20
v -20 0 20
v -20 1 20
v -4 1 20
v -4 6 20
v -4 7 20
v -4 61 20
v -4 64 20
v -4 71 20
v -3 1 20
v -3 6 20
v -3 7 20
v -3 61 20
v -3 64 20
v -3 71 20
v 2 1 20
v 2 6 20
v 3 6 20
v 3 7 20
v 3 61 20
v 3 64 20
v 3 71 20
v 4 1 20
v 4 6 20
v 4 7 20
v 4 61 20
v 4 64 20
v 4 71 20
v 20 0 20
v 20 1 20
v -20 1 4
v -20 6 4
v -20 7 4
v -20 61 4
v -20 64 4
v -20 71 4
v -19 1 4
v -17 69 4
v -17 70 4
v -16 69 4
v -16 70 4
v -7 67 4
v -7 68 4
v -7 69 4
v -7 71 4
v -6 67 4
v -6 68 4
v -6 69 4
v -6 71 4
v -4 1 4
v -4 6 4
v -4 7 4
v -4 61 4
v -4 64 4
v -4 71 4
v -20 1 -4
v -20 6 -4
v -20 7 -4
v -20 61 -4
v -20 64 -4
v -20 71 -4
v -19 1 -4
v -12 67 -4
v -12 68 -4
v -11 67 -4
v -11 68 -4
v -3 69 -4
v -3 70 -4
v -2 69 -4
v -2 70 -4
v 3 65 -4
v 3 67 -4
v 3 69 -4
v 3 71 -4
v 4 1 -4
v 4 6 -4
v 4 7 -4
v 4 61 -4
v 4 64 -4
v 4 65 -4
v 4 67 -4
v 4 69 -4
v 4 71 -4
v -20 0 -20
v -20 1 -20
v 20 0 -20
v 20 1 -20
v -20 0 20
v 20 0 20
v -19 0 19
v 18 0 19
v 19 0 19
v -19 0 -19
v 18 0 -19
v 19 0 -19
v -20 0 -20
v 20 0 -20
v -20 1 20
v -4 1 20
v 4 1 20
v 20 1 20
v -19 1 19
v -4 1 19
v 4 1 19
v 18 1 19
v 19 1 19
v -20 1 4
v -19 1 4
v -4 1 4
v -20 1 -4
v -19 1 -4
v 4 1 -4
v -19 1 -19
v 18 1 -19
v 19 1 -19
v -20 1 -20
v 20 1 -20
v -4 71 20
v -3 71 20
v 3 71 20
v 4 71 20
v -4 71 16
v -3 71 16
v -4 71 15
v -3 71 15
v 3 71 13
v 4 71 13
v -4 71 11
v -3 71 11
v 3 71 10
v 4 71 10
v -4 71 9
v -3 71 9
v -20 71 4
v -7 71 4
v -6 71 4
v -4 71 4
v -3 71 4
v -20 71 3
v -7 71 3
v -6 71 3
v -4 71 3
v -20 71 -3
v 3 71 -3
v 4 71 -3
v -20 71 -4
v 3 71 -4
v 4 71 -4

# faces
f 3/7/1 2/7/1 1/7/1
f 4/7/1 2/7/1 3/7/1
f 5/7/1 2/7/1 4/7/1
f 6/7/1 2/7/1 5/7/1
f 7/7/1 2/7/1 6/7/1
f 8/7/1 2/7/1 7/7/1
f 9/2/1 5/2/1 4/2/1
f 10/9/1 6/9/1 5/9/1
f 10/2/1 5/2/1 9/2/1
f 11/2/1 7/2/1 6/2/1
f 11/9/1 6/9/1 10/9/1
f 12/2/1 7/2/1 11/2/1
f 13/4/1 10/4/1 9/4/1
f 14/9/1 11/9/1 10/9/1
f 14/4/1 10/4/1 13/4/1
f 15/4/1 12/4/1 11/4/1
f 15/9/1 11/9/1 14/9/1
f 16/4/1 12/4/1 15/4/1
f 17/3/1 14/3/1 13/3/1
f 18/9/1 15/9/1 14/9/1
f 18/3/1 14/3/1 17/3/1
f 19/3/1 16/3/1 15/3/1
f 19/9/1 15/9/1 18/9/1
f 20/3/1 16/3/1 19/3/1
f 21/4/1 18/4/1 17/4/1
f 22/9/1 19/9/1 18/9/1
f 22/4/1 18/4/1 21/4/1
f 23/4/1 20/4/1 19/4/1
f 23/9/1 19/9/1 22/9/1
f 24/4/1 20/4/1 23/4/1
f 25/3/1 22/3/1 21/3/1
f 26/9/1 23/9/1 22/9/1
f 26/3/1 22/3/1 25/3/1
f 27/3/1 24/3/1 23/3/1
f 27/9/1 23/9/1 26/9/1
f 28/3/1 24/3/1 27/3/1
f 32/2/1 30/2/1 29/2/1
f 32/2/1 31/2/1 30/2/1
f 33/2/1 31/2/1 32/2/1
f 34/4/1 33/4/1 32/4/1
f 35/4/1 33/4/1 34/4/1
f 36/3/1 35/3/1 34/3/1
f 37/3/1 35/3/1 36/3/1
f 38/4/1 37/4/1 36/4/1
f 39/4/1 37/4/1 38/4/1
f 40/3/1 39/3/1 38/3/1
f 41/3/1 39/3/1 40/3/1
f 42/3/1 40/3/1 38/3/1
f 42/1/1 41/1/1 40/1/1
f 43/3/1 39/3/1 41/3/1
f 43/1/1 41/1/1 42/1/1
f 44/3/1 42/3/1 38/3/1
f 44/3/1 43/3/1 42/3/1
f 45/3/1 39/3/1 43/3/1
f 45/3/1 43/3/1 44/3/1
f 46/3/1 44/3/1 38/3/1
f 47/3/1 44/3/1 46/3/1
f 48/3/1 39/3/1 45/3/1
f 48/1/1 45/1/1 44/1/1
f 49/3/1 39/3/1 48/3/1
f 50/3/1 46/3/1 38/3/1
f 51/1/1 47/1/1 46/1/1
f 51/3/1 46/3/1 50/3/1
f 52/3/1 44/3/1 47/3/1
f 52/1/1 47/1/1 51/1/1
f 53/1/1 48/1/1 44/1/1
f 53/3/1 44/3/1 52/3/1
f 53/1/1 49/1/1 48/1/1
f 54/3/1 39/3/1 49/3/1
f 54/1/1 49/1/1 53/1/1
f 55/3/1 39/3/1 54/3/1
f 56/2/2 57/2/2 59/2/2
f 57/2/2 58/2/2 59/2/2
f 59/2/2 58/2/2 60/2/2
f 59/4/2 60/4/2 61/4/2
f 61/4/2 60/4/2 62/4/2
f 61/3/2 62/3/2 63/3/2
f 63/3/2 62/3/2 64/3/2
f 63/4/2 64/4/2 65/4/2
f 65/4/2 64/4/2 66/4/2
f 65/3/2 66/3/2 67/3/2
f 67/3/2 66/3/2 68/3/2
f 68/3/2 66/3/2 69/3/2
f 69/3/2 66/3/2 70/3/2
f 65/3/2 67/3/2 71/3/2
f 67/1/2 68/1/2 71/1/2
f 68/3/2 69/3/2 72/3/2
f 71/1/2 68/1/2 72/1/2
f 72/3/2 69/3/2 73/3/2
f 73/3/2 69/3/2 74/3/2
f 74/3/2 69/3/2 75/3/2
f 71/3/2 72/3/2 76/3/2
f 72/1/2 73/1/2 76/1/2
f 73/3/2 74/3/2 77/3/2
f 76/1/2 73/1/2 77/1/2
f 74/1/2 75/1/2 78/1/2
f 77/3/2 74/3/2 78/3/2
f 75/3/2 69/3/2 79/3/2
f 78/1/2 75/1/2 79/1/2
f 69/1/2 70/1/2 80/1/2
f 79/3/2 69/3/2 80/3/2
f 80/1/2 70/1/2 81/1/2
f 78/3/2 79/3/2 82/3/2
f 77/3/2 78/3/2 82/3/2
f 80/3/2 81/3/2 82/3/2
f 79/3/2 80/3/2 82/3/2
f 71/3/2 76/3/2 82/3/2
f 76/3/2 77/3/2 82/3/2
f 82/3/2 81/3/2 83/3/2
f 83/3/2 81/3/2 84/3/2
f 84/3/2 81/3/2 85/3/2
f 82/1/2 83/1/2 86/1/2
f 83/3/2 84/3/2 86/3/2
f 86/3/2 84/3/2 87/3/2
f 65/3/2 71/3/2 88/3/2
f 71/3/2 82/3/2 88/3/2
f 86/1/2 87/1/2 89/1/2
f 88/3/2 82/3/2 89/3/2
f 82/1/2 86/1/2 89/1/2
f 87/3/2 84/3/2 90/3/2
f 89/1/2 87/1/2 90/1/2
f 84/1/2 85/1/2 91/1/2
f 90/3/2 84/3/2 91/3/2
f 91/1/2 85/1/2 92/1/2
f 93/7/2 94/7/2 95/7/2
f 95/7/2 94/7/2 96/7/2
f 99/7/3 98/7/3 97/7/3
f 105/7/3 99/7/3 97/7/3
f 105/2/3 100/2/3 99/2/3
f 106/4/3 101/4/3 100/4/3
f 106/2/3 100/2/3 105/2/3
f 107/3/3 102/3/3 101/3/3
f 107/4/3 101/4/3 106/4/3
f 108/4/3 103/4/3 102/4/3
f 108/3/3 102/3/3 107/3/3
f 109/3/3 104/3/3 103/3/3
f 109/4/3 103/4/3 108/4/3
f 110/3/3 104/3/3 109/3/3
f 111/9/3 108/9/3 107/9/3
f 111/9/3 107/9/3 106/9/3
f 111/9/3 110/9/3 109/9/3
f 111/9/3 109/9/3 108/9/3
f 111/9/3 106/9/3 105/9/3
f 111/7/3 105/7/3 97/7/3
f 112/9/3 110/9/3 111/9/3
f 113/2/3 112/2/3 111/2/3
f 113/9/3 110/9/3 112/9/3
f 114/9/3 110/9/3 113/9/3
f 115/9/3 110/9/3 114/9/3
f 116/9/3 110/9/3 115/9/3
f 117/9/3 110/9/3 116/9/3
f 118/7/3 111/7/3 97/7/3
f 118/2/3 113/2/3 111/2/3
f 119/4/3 114/4/3 113/4/3
f 119/2/3 113/2/3 118/2/3
f 120/3/3 115/3/3 114/3/3
f 120/4/3 114/4/3 119/4/3
f 121/4/3 116/4/3 115/4/3
f 121/3/3 115/3/3 120/3/3
f 122/3/3 117/3/3 116/3/3
f 122/4/3 116/4/3 121/4/3
f 123/3/3 117/3/3 122/3/3
f 124/7/3 118/7/3 97/7/3
f 125/7/3 118/7/3 124/7/3
f 132/2/3 127/2/3 126/2/3
f 133/3/3 131/3/3 130/3/3
f 134/3/3 131/3/3 133/3/3
f 135/3/3 133/3/3 130/3/3
f 135/1/3 134/1/3 133/1/3
f 136/3/3 131/3/3 134/3/3
f 136/1/3 134/1/3 135/1/3
f 137/3/3 135/3/3 130/3/3
f 137/3/3 136/3/3 135/3/3
f 138/3/3 136/3/3 137/3/3
f 139/3/3 136/3/3 138/3/3
f 140/3/3 131/3/3 136/3/3
f 140/3/3 136/3/3 139/3/3
f 141/3/3 137/3/3 130/3/3
f 141/1/3 138/1/3 137/1/3
f 142/3/3 139/3/3 138/3/3
f 142/1/3 138/1/3 141/1/3
f 143/1/3 140/1/3 139/1/3
f 143/3/3 139/3/3 142/3/3
f 144/1/3 140/1/3 143/1/3
f 145/2/3 127/2/3 132/2/3
f 146/4/3 128/4/3 127/4/3
f 146/2/3 127/2/3 145/2/3
f 147/3/3 129/3/3 128/3/3
f 147/4/3 128/4/3 146/4/3
f 148/4/3 130/4/3 129/4/3
f 148/3/3 129/3/3 147/3/3
f 149/3/3 141/3/3 130/3/3
f 149/4/3 130/4/3 148/4/3
f 149/3/3 142/3/3 141/3/3
f 149/3/3 144/3/3 143/3/3
f 149/3/3 143/3/3 142/3/3
f 150/3/3 144/3/3 149/3/3
f 151/2/4 152/2/4 157/2/4
f 155/3/4 156/3/4 158/3/4
f 158/3/4 156/3/4 159/3/4
f 155/3/4 158/3/4 160/3/4
f 158/1/4 159/1/4 160/1/4
f 159/3/4 156/3/4 161/3/4
f 160/1/4 159/1/4 161/1/4
f 160/3/4 161/3/4 162/3/4
f 161/3/4 156/3/4 162/3/4
f 162/3/4 156/3/4 163/3/4
f 160/3/4 162/3/4 164/3/4
f 162/1/4 163/1/4 164/1/4
f 163/3/4 156/3/4 165/3/4
f 164/1/4 163/1/4 165/1/4
f 155/3/4 160/3/4 166/3/4
f 160/3/4 164/3/4 166/3/4
f 164/3/4 165/3/4 166/3/4
f 166/3/4 165/3/4 167/3/4
f 167/3/4 165/3/4 168/3/4
f 165/3/4 156/3/4 169/3/4
f 168/3/4 165/3/4 169/3/4
f 157/2/4 152/2/4 170/2/4
f 152/4/4 153/4/4 171/4/4
f 170/2/4 152/2/4 171/2/4
f 153/3/4 154/3/4 172/3/4
f 171/4/4 153/4/4 172/4/4
f 154/4/4 155/4/4 173/4/4
f 172/3/4 154/3/4 173/3/4
f 155/3/4 166/3/4 174/3/4
f 173/4/4 155/4/4 174/4/4
f 166/1/4 167/1/4 175/1/4
f 174/3/4 166/3/4 175/3/4
f 167/3/4 168/3/4 176/3/4
f 175/1/4 167/1/4 176/1/4
f 168/1/4 169/1/4 177/1/4
f 176/3/4 168/3/4 177/3/4
f 177/1/4 169/1/4 178/1/4
f 179/7/4 180/7/4 181/7/4
f 181/7/4 180/7/4 182/7/4
f 185/7/5 184/7/5 183/7/5
f 186/7/5 184/7/5 185/7/5
f 187/7/5 184/7/5 186/7/5
f 188/7/5 185/7/5 183/7/5
f 188/5/5 186/5/5 185/5/5
f 189/6/5 187/6/5 186/6/5
f 189/5/5 186/5/5 188/5/5
f 190/7/5 184/7/5 187/7/5
f 190/6/5 187/6/5 189/6/5
f 191/7/5 189/7/5 188/7/5
f 191/7/5 188/7/5 183/7/5
f 191/7/5 190/7/5 189/7/5
f 192/7/5 184/7/5 190/7/5
f 192/7/5 190/7/5 191/7/5
f 193/7/6 194/7/6 197/7/6
f 197/7/6 194/7/6 198/7/6
f 195/7/6 196/7/6 199/7/6
f 199/7/6 196/7/6 200/7/6
f 200/7/6 196/7/6 201/7/6
f 193/7/6 197/7/6 202/7/6
f 197/5/6 198/5/6 203/5/6
f 202/7/6 197/7/6 203/7/6
f 203/5/6 198/5/6 204/5/6
f 199/5/6 200/5/6 207/5/6
f 205/7/6 206/7/6 208/7/6
f 206/5/6 207/5/6 208/5/6
f 207/5/6 200/5/6 209/5/6
f 208/5/6 207/5/6 209/5/6
f 200/6/6 201/6/6 209/6/6
f 201/7/6 196/7/6 210/7/6
f 209/6/6 201/6/6 210/6/6
f 208/7/6 209/7/6 211/7/6
f 205/7/6 208/7/6 211/7/6
f 209/7/6 210/7/6 211/7/6
f 210/7/6 196/7/6 212/7/6
f 211/7/6 210/7/6 212/7/6
f 213/3/6 214/3/6 217/3/6
f 214/9/6 215/9/6 218/9/6
f 217/3/6 214/3/6 218/3/6
f 217/1/6 218/1/6 219/1/6
f 218/9/6 215/9/6 220/9/6
f 219/1/6 218/1/6 220/1/6
f 215/3/6 216/3/6 221/3/6
f 220/9/6 215/9/6 221/9/6
f 221/3/6 216/3/6 222/3/6
f 219/3/6 220/3/6 223/3/6
f 220/9/6 221/9/6 224/9/6
f 223/3/6 220/3/6 224/3/6
f 221/1/6 222/1/6 225/1/6
f 224/9/6 221/9/6 225/9/6
f 225/1/6 222/1/6 226/1/6
f 223/1/6 224/1/6 227/1/6
f 224/9/6 225/9/6 228/9/6
f 227/1/6 224/1/6 228/1/6
f 227/3/6 228/3/6 232/3/6
f 228/9/6 225/9/6 233/9/6
f 232/3/6 228/3/6 233/3/6
f 229/3/6 230/3/6 234/3/6
f 230/1/6 231/1/6 235/1/6
f 234/3/6 230/3/6 235/3/6
f 231/3/6 232/3/6 236/3/6
f 235/1/6 231/1/6 236/1/6
f 232/9/6 233/9/6 237/9/6
f 236/3/6 232/3/6 237/3/6
f 234/9/6 235/9/6 238/9/6
f 235/9/6 236/9/6 238/9/6
f 236/9/6 237/9/6 238/9/6
f 225/3/6 226/3/6 239/3/6
f 238/9/6 237/9/6 239/9/6
f 237/9/6 233/9/6 239/9/6
f 233/9/6 225/9/6 239/9/6
f 239/3/6 226/3/6 240/3/6
f 238/3/6 239/3/6 241/3/6
f 239/1/6 240/1/6 242/1/6
f 241/3/6 239/3/6 242/3/6
f 242/1/6 240/1/6 243/1/6
