# MagicaVoxel @ Ephtracy

# material
mtllib Parede_T_2.mtl
usemtl palette

# normals
vn -1 0 0
vn 1 0 0
vn 0 0 1
vn 0 0 -1
vn 0 -1 0
vn 0 1 0

# texcoords
vt 0.349609 0.5
vt 0.408203 0.5
vt 0.412109 0.5
vt 0.416016 0.5
vt 0.689453 0.5
vt 0.693359 0.5
vt 0.697266 0.5
vt 0.970703 0.5
vt 0.994141 0.5

# verts
v -20 0 20
v -20 0 -20
v -20 1 20
v -20 1 4
v -20 1 3
v -20 1 -3
v -20 1 -4
v -20 1 -20
v -20 6 4
v -20 6 3
v -20 6 -3
v -20 6 -4
v -20 7 4
v -20 7 3
v -20 61 4
v -20 61 3
v -20 61 -3
v -20 61 -4
v -20 64 4
v -20 64 3
v -20 64 -3
v -20 64 -4
v -20 67 4
v -20 67 3
v -20 69 4
v -20 69 3
v -20 71 4
v -20 71 3
v -20 71 -3
v -20 71 -4
v -4 1 20
v -4 1 19
v -4 1 4
v -4 1 -4
v -4 1 -19
v -4 1 -20
v -4 6 20
v -4 6 4
v -4 6 -4
v -4 6 -20
v -4 7 20
v -4 7 4
v -4 61 20
v -4 61 4
v -4 61 -4
v -4 61 -20
v -4 63 7
v -4 63 6
v -4 64 20
v -4 64 7
v -4 64 6
v -4 64 4
v -4 64 -4
v -4 64 -20
v -4 65 7
v -4 65 6
v -4 66 -7
v -4 66 -8
v -4 66 -15
v -4 66 -16
v -4 67 20
v -4 67 19
v -4 67 10
v -4 67 9
v -4 67 -7
v -4 67 -8
v -4 67 -11
v -4 67 -12
v -4 67 -15
v -4 67 -16
v -4 68 20
v -4 68 19
v -4 68 10
v -4 68 9
v -4 69 15
v -4 69 14
v -4 69 10
v -4 69 9
v -4 69 -10
v -4 69 -11
v -4 69 -12
v -4 69 -18
v -4 69 -19
v -4 70 14
v -4 70 11
v -4 70 -9
v -4 70 -10
v -4 70 -18
v -4 70 -19
v -4 71 20
v -4 71 15
v -4 71 11
v -4 71 10
v -4 71 9
v -4 71 4
v -4 71 -4
v -4 71 -9
v -4 71 -11
v -4 71 -20
v 4 1 20
v 4 1 19
v 4 1 -19
v 4 1 -20
v 4 6 20
v 4 6 -20
v 4 7 20
v 4 7 -20
v 4 61 20
v 4 61 -20
v 4 64 20
v 4 64 -20
v 4 65 -1
v 4 65 -2
v 4 66 -1
v 4 66 -2
v 4 67 4
v 4 67 3
v 4 67 -1
v 4 67 -2
v 4 67 -12
v 4 67 -13
v 4 67 -19
v 4 67 -20
v 4 68 20
v 4 68 19
v 4 68 11
v 4 68 10
v 4 68 4
v 4 68 3
v 4 68 -12
v 4 68 -13
v 4 68 -19
v 4 68 -20
v 4 69 20
v 4 69 19
v 4 69 11
v 4 69 10
v 4 69 -2
v 4 69 -3
v 4 69 -12
v 4 69 -13
v 4 70 16
v 4 70 15
v 4 70 -0
v 4 70 -1
v 4 70 -3
v 4 70 -4
v 4 70 -14
v 4 70 -15
v 4 71 20
v 4 71 16
v 4 71 15
v 4 71 -0
v 4 71 -4
v 4 71 -12
v 4 71 -13
v 4 71 -14
v 4 71 -15
v 4 71 -20
v 20 0 20
v 20 0 -20
v 20 1 20
v 20 1 -20
v -20 0 20
v -20 1 20
v -4 1 20
v -4 6 20
v -4 7 20
v -4 61 20
v -4 64 20
v -4 67 20
v -4 68 20
v -4 71 20
v -3 1 20
v -3 6 20
v -3 7 20
v -3 61 20
v -3 64 20
v -3 67 20
v -3 68 20
v -3 71 20
v 3 1 20
v 3 6 20
v 3 7 20
v 3 61 20
v 3 64 20
v 3 68 20
v 3 69 20
v 3 71 20
v 4 1 20
v 4 6 20
v 4 7 20
v 4 61 20
v 4 64 20
v 4 68 20
v 4 69 20
v 4 71 20
v 20 0 20
v 20 1 20
v -20 1 4
v -20 6 4
v -20 7 4
v -20 61 4
v -20 64 4
v -20 67 4
v -20 69 4
v -20 71 4
v -19 1 4
v -19 67 4
v -19 69 4
v -18 1 4
v -15 70 4
v -15 71 4
v -14 68 4
v -14 70 4
v -13 68 4
v -13 71 4
v -8 66 4
v -8 67 4
v -7 66 4
v -7 67 4
v -4 1 4
v -4 6 4
v -4 7 4
v -4 61 4
v -4 64 4
v -4 71 4
v -20 1 -4
v -20 6 -4
v -20 61 -4
v -20 64 -4
v -20 71 -4
v -19 1 -4
v -18 1 -4
v -16 68 -4
v -16 69 -4
v -15 68 -4
v -15 69 -4
v -15 70 -4
v -15 71 -4
v -14 69 -4
v -14 70 -4
v -13 69 -4
v -13 71 -4
v -12 66 -4
v -12 67 -4
v -12 69 -4
v -12 71 -4
v -11 66 -4
v -11 67 -4
v -11 69 -4
v -11 71 -4
v -7 68 -4
v -7 69 -4
v -6 68 -4
v -6 69 -4
v -4 1 -4
v -4 6 -4
v -4 61 -4
v -4 64 -4
v -4 71 -4
v -20 0 -20
v -20 1 -20
v -4 1 -20
v -4 6 -20
v -4 61 -20
v -4 64 -20
v -4 71 -20
v -3 1 -20
v -3 6 -20
v -3 61 -20
v -3 64 -20
v -3 71 -20
v 3 1 -20
v 3 6 -20
v 3 7 -20
v 3 61 -20
v 3 64 -20
v 3 67 -20
v 3 68 -20
v 3 71 -20
v 4 1 -20
v 4 6 -20
v 4 7 -20
v 4 61 -20
v 4 64 -20
v 4 67 -20
v 4 68 -20
v 4 71 -20
v 20 0 -20
v 20 1 -20
v -20 0 20
v 20 0 20
v -19 0 19
v -18 0 19
v 19 0 19
v -19 0 -19
v -18 0 -19
v 19 0 -19
v -20 0 -20
v 20 0 -20
v -20 1 20
v -4 1 20
v 4 1 20
v 20 1 20
v -19 1 19
v -18 1 19
v -4 1 19
v 4 1 19
v 19 1 19
v -20 1 4
v -19 1 4
v -18 1 4
v -4 1 4
v -20 1 -4
v -19 1 -4
v -18 1 -4
v -4 1 -4
v -19 1 -19
v -18 1 -19
v -4 1 -19
v 4 1 -19
v 19 1 -19
v -20 1 -20
v -4 1 -20
v 4 1 -20
v 20 1 -20
v -4 71 20
v -3 71 20
v 3 71 20
v 4 71 20
v 3 71 16
v 4 71 16
v -4 71 15
v -3 71 15
v 3 71 15
v 4 71 15
v -4 71 11
v -3 71 11
v -4 71 10
v -3 71 10
v -4 71 9
v -3 71 9
v -20 71 4
v -15 71 4
v -13 71 4
v -4 71 4
v -3 71 4
v -20 71 3
v -15 71 3
v -13 71 3
v -4 71 3
v 3 71 -0
v 4 71 -0
v -20 71 -3
v -15 71 -3
v -13 71 -3
v -12 71 -3
v -11 71 -3
v -4 71 -3
v -20 71 -4
v -15 71 -4
v -13 71 -4
v -12 71 -4
v -11 71 -4
v -4 71 -4
v -3 71 -4
v 3 71 -4
v 4 71 -4
v -4 71 -9
v -3 71 -9
v -4 71 -11
v -3 71 -11
v 3 71 -12
v 4 71 -12
v 3 71 -13
v 4 71 -13
v 3 71 -14
v 4 71 -14
v 3 71 -15
v 4 71 -15
v -4 71 -20
v -3 71 -20
v 3 71 -20
v 4 71 -20

# faces
f 3/7/1 2/7/1 1/7/1
f 4/7/1 2/7/1 3/7/1
f 5/7/1 2/7/1 4/7/1
f 6/7/1 2/7/1 5/7/1
f 7/7/1 2/7/1 6/7/1
f 8/7/1 2/7/1 7/7/1
f 9/2/1 5/2/1 4/2/1
f 10/9/1 6/9/1 5/9/1
f 10/2/1 5/2/1 9/2/1
f 11/2/1 7/2/1 6/2/1
f 11/9/1 6/9/1 10/9/1
f 12/2/1 7/2/1 11/2/1
f 13/4/1 10/4/1 9/4/1
f 14/9/1 11/9/1 10/9/1
f 14/4/1 10/4/1 13/4/1
f 15/3/1 14/3/1 13/3/1
f 16/9/1 11/9/1 14/9/1
f 16/3/1 14/3/1 15/3/1
f 17/3/1 12/3/1 11/3/1
f 17/9/1 11/9/1 16/9/1
f 18/3/1 12/3/1 17/3/1
f 19/4/1 16/4/1 15/4/1
f 20/9/1 17/9/1 16/9/1
f 20/4/1 16/4/1 19/4/1
f 21/4/1 18/4/1 17/4/1
f 21/9/1 17/9/1 20/9/1
f 22/4/1 18/4/1 21/4/1
f 23/3/1 20/3/1 19/3/1
f 24/9/1 21/9/1 20/9/1
f 24/3/1 20/3/1 23/3/1
f 25/1/1 24/1/1 23/1/1
f 26/9/1 21/9/1 24/9/1
f 26/1/1 24/1/1 25/1/1
f 27/3/1 26/3/1 25/3/1
f 28/9/1 21/9/1 26/9/1
f 28/3/1 26/3/1 27/3/1
f 29/3/1 22/3/1 21/3/1
f 29/9/1 21/9/1 28/9/1
f 30/3/1 22/3/1 29/3/1
f 37/2/1 32/2/1 31/2/1
f 37/2/1 33/2/1 32/2/1
f 38/2/1 33/2/1 37/2/1
f 39/2/1 36/2/1 35/2/1
f 39/2/1 35/2/1 34/2/1
f 40/2/1 36/2/1 39/2/1
f 41/4/1 38/4/1 37/4/1
f 42/4/1 38/4/1 41/4/1
f 43/3/1 42/3/1 41/3/1
f 44/3/1 42/3/1 43/3/1
f 45/3/1 40/3/1 39/3/1
f 46/3/1 40/3/1 45/3/1
f 47/4/1 44/4/1 43/4/1
f 48/4/1 44/4/1 47/4/1
f 49/4/1 47/4/1 43/4/1
f 50/1/1 48/1/1 47/1/1
f 50/4/1 47/4/1 49/4/1
f 51/4/1 44/4/1 48/4/1
f 51/1/1 48/1/1 50/1/1
f 52/4/1 44/4/1 51/4/1
f 53/4/1 46/4/1 45/4/1
f 54/4/1 46/4/1 53/4/1
f 55/3/1 50/3/1 49/3/1
f 55/1/1 51/1/1 50/1/1
f 56/3/1 52/3/1 51/3/1
f 56/1/1 51/1/1 55/1/1
f 57/3/1 54/3/1 53/3/1
f 58/3/1 54/3/1 57/3/1
f 59/3/1 54/3/1 58/3/1
f 60/3/1 54/3/1 59/3/1
f 61/3/1 55/3/1 49/3/1
f 61/3/1 56/3/1 55/3/1
f 62/3/1 56/3/1 61/3/1
f 63/3/1 56/3/1 62/3/1
f 64/3/1 56/3/1 63/3/1
f 65/3/1 57/3/1 53/3/1
f 65/1/1 58/1/1 57/1/1
f 66/3/1 59/3/1 58/3/1
f 66/1/1 58/1/1 65/1/1
f 67/3/1 59/3/1 66/3/1
f 68/3/1 59/3/1 67/3/1
f 69/1/1 60/1/1 59/1/1
f 69/3/1 59/3/1 68/3/1
f 70/3/1 54/3/1 60/3/1
f 70/1/1 60/1/1 69/1/1
f 71/1/1 62/1/1 61/1/1
f 72/3/1 63/3/1 62/3/1
f 72/1/1 62/1/1 71/1/1
f 73/1/1 64/1/1 63/1/1
f 73/3/1 63/3/1 72/3/1
f 74/3/1 56/3/1 64/3/1
f 74/1/1 64/1/1 73/1/1
f 75/3/1 73/3/1 72/3/1
f 75/3/1 72/3/1 71/3/1
f 75/3/1 74/3/1 73/3/1
f 76/3/1 74/3/1 75/3/1
f 77/3/1 74/3/1 76/3/1
f 78/3/1 56/3/1 74/3/1
f 78/3/1 74/3/1 77/3/1
f 79/3/1 66/3/1 65/3/1
f 79/3/1 67/3/1 66/3/1
f 80/1/1 68/1/1 67/1/1
f 80/3/1 67/3/1 79/3/1
f 81/3/1 69/3/1 68/3/1
f 81/1/1 68/1/1 80/1/1
f 81/3/1 70/3/1 69/3/1
f 82/3/1 54/3/1 70/3/1
f 82/3/1 70/3/1 81/3/1
f 83/3/1 54/3/1 82/3/1
f 84/3/1 77/3/1 76/3/1
f 84/1/1 76/1/1 75/1/1
f 85/3/1 77/3/1 84/3/1
f 86/3/1 79/3/1 65/3/1
f 87/1/1 80/1/1 79/1/1
f 87/3/1 79/3/1 86/3/1
f 88/1/1 83/1/1 82/1/1
f 88/3/1 81/3/1 80/3/1
f 88/3/1 82/3/1 81/3/1
f 89/3/1 54/3/1 83/3/1
f 89/1/1 83/1/1 88/1/1
f 90/3/1 75/3/1 71/3/1
f 91/1/1 85/1/1 84/1/1
f 91/3/1 75/3/1 90/3/1
f 91/1/1 84/1/1 75/1/1
f 92/3/1 77/3/1 85/3/1
f 92/1/1 85/1/1 91/1/1
f 93/1/1 78/1/1 77/1/1
f 93/3/1 77/3/1 92/3/1
f 94/3/1 56/3/1 78/3/1
f 94/1/1 78/1/1 93/1/1
f 95/3/1 52/3/1 56/3/1
f 95/3/1 56/3/1 94/3/1
f 96/3/1 86/3/1 65/3/1
f 96/3/1 65/3/1 53/3/1
f 97/1/1 87/1/1 86/1/1
f 97/3/1 86/3/1 96/3/1
f 98/3/1 88/3/1 80/3/1
f 98/1/1 87/1/1 97/1/1
f 98/1/1 80/1/1 87/1/1
f 98/3/1 89/3/1 88/3/1
f 99/3/1 54/3/1 89/3/1
f 99/3/1 89/3/1 98/3/1
f 100/2/2 101/2/2 104/2/2
f 102/2/2 103/2/2 104/2/2
f 101/2/2 102/2/2 104/2/2
f 104/2/2 103/2/2 105/2/2
f 104/4/2 105/4/2 106/4/2
f 106/4/2 105/4/2 107/4/2
f 106/3/2 107/3/2 108/3/2
f 108/3/2 107/3/2 109/3/2
f 108/4/2 109/4/2 110/4/2
f 110/4/2 109/4/2 111/4/2
f 110/3/2 111/3/2 112/3/2
f 112/3/2 111/3/2 113/3/2
f 110/3/2 112/3/2 114/3/2
f 112/1/2 113/1/2 114/1/2
f 113/3/2 111/3/2 115/3/2
f 114/1/2 113/1/2 115/1/2
f 110/3/2 114/3/2 116/3/2
f 114/3/2 115/3/2 116/3/2
f 116/3/2 115/3/2 117/3/2
f 117/3/2 115/3/2 118/3/2
f 115/3/2 111/3/2 119/3/2
f 118/3/2 115/3/2 119/3/2
f 119/3/2 111/3/2 120/3/2
f 120/3/2 111/3/2 121/3/2
f 121/3/2 111/3/2 122/3/2
f 122/3/2 111/3/2 123/3/2
f 110/3/2 116/3/2 124/3/2
f 124/3/2 116/3/2 125/3/2
f 125/3/2 116/3/2 126/3/2
f 126/3/2 116/3/2 127/3/2
f 116/1/2 117/1/2 128/1/2
f 127/3/2 116/3/2 128/3/2
f 117/3/2 118/3/2 129/3/2
f 128/1/2 117/1/2 129/1/2
f 119/3/2 120/3/2 130/3/2
f 120/1/2 121/1/2 130/1/2
f 121/3/2 122/3/2 131/3/2
f 130/1/2 121/1/2 131/1/2
f 122/1/2 123/1/2 132/1/2
f 131/3/2 122/3/2 132/3/2
f 132/1/2 123/1/2 133/1/2
f 124/1/2 125/1/2 134/1/2
f 125/3/2 126/3/2 135/3/2
f 134/1/2 125/1/2 135/1/2
f 126/1/2 127/1/2 136/1/2
f 135/3/2 126/3/2 136/3/2
f 127/3/2 128/3/2 137/3/2
f 136/1/2 127/1/2 137/1/2
f 128/3/2 129/3/2 137/3/2
f 118/1/2 119/1/2 138/1/2
f 132/3/2 133/3/2 138/3/2
f 119/3/2 130/3/2 138/3/2
f 131/3/2 132/3/2 138/3/2
f 130/3/2 131/3/2 138/3/2
f 138/3/2 133/3/2 139/3/2
f 139/3/2 133/3/2 140/3/2
f 140/3/2 133/3/2 141/3/2
f 135/3/2 136/3/2 142/3/2
f 134/3/2 135/3/2 142/3/2
f 136/3/2 137/3/2 142/3/2
f 142/3/2 137/3/2 143/3/2
f 137/3/2 129/3/2 144/3/2
f 143/3/2 137/3/2 144/3/2
f 129/3/2 118/3/2 144/3/2
f 118/1/2 138/1/2 145/1/2
f 144/3/2 118/3/2 145/3/2
f 138/1/2 139/1/2 145/1/2
f 139/3/2 140/3/2 146/3/2
f 145/1/2 139/1/2 146/1/2
f 146/3/2 140/3/2 147/3/2
f 141/3/2 133/3/2 148/3/2
f 148/3/2 133/3/2 149/3/2
f 134/3/2 142/3/2 150/3/2
f 142/1/2 143/1/2 151/1/2
f 150/3/2 142/3/2 151/3/2
f 143/3/2 144/3/2 152/3/2
f 151/1/2 143/1/2 152/1/2
f 144/1/2 145/1/2 153/1/2
f 152/3/2 144/3/2 153/3/2
f 145/1/2 146/1/2 153/1/2
f 146/1/2 147/1/2 153/1/2
f 147/3/2 140/3/2 154/3/2
f 153/1/2 147/1/2 154/1/2
f 140/1/2 141/1/2 155/1/2
f 154/3/2 140/3/2 155/3/2
f 141/3/2 148/3/2 156/3/2
f 155/1/2 141/1/2 156/1/2
f 148/1/2 149/1/2 157/1/2
f 156/3/2 148/3/2 157/3/2
f 149/3/2 133/3/2 158/3/2
f 157/1/2 149/1/2 158/1/2
f 158/3/2 133/3/2 159/3/2
f 160/7/2 161/7/2 162/7/2
f 162/7/2 161/7/2 163/7/2
f 166/7/3 165/7/3 164/7/3
f 174/7/3 166/7/3 164/7/3
f 174/2/3 167/2/3 166/2/3
f 175/4/3 168/4/3 167/4/3
f 175/2/3 167/2/3 174/2/3
f 176/3/3 169/3/3 168/3/3
f 176/4/3 168/4/3 175/4/3
f 177/4/3 170/4/3 169/4/3
f 177/3/3 169/3/3 176/3/3
f 178/3/3 171/3/3 170/3/3
f 178/4/3 170/4/3 177/4/3
f 179/1/3 172/1/3 171/1/3
f 179/3/3 171/3/3 178/3/3
f 180/3/3 173/3/3 172/3/3
f 180/1/3 172/1/3 179/1/3
f 181/3/3 173/3/3 180/3/3
f 182/9/3 179/9/3 178/9/3
f 182/9/3 178/9/3 177/9/3
f 182/9/3 181/9/3 180/9/3
f 182/9/3 180/9/3 179/9/3
f 182/9/3 177/9/3 176/9/3
f 182/9/3 176/9/3 175/9/3
f 182/9/3 175/9/3 174/9/3
f 182/7/3 174/7/3 164/7/3
f 183/9/3 181/9/3 182/9/3
f 184/9/3 181/9/3 183/9/3
f 185/9/3 181/9/3 184/9/3
f 186/9/3 181/9/3 185/9/3
f 187/9/3 181/9/3 186/9/3
f 188/9/3 181/9/3 187/9/3
f 189/9/3 181/9/3 188/9/3
f 190/7/3 182/7/3 164/7/3
f 190/2/3 183/2/3 182/2/3
f 191/4/3 184/4/3 183/4/3
f 191/2/3 183/2/3 190/2/3
f 192/3/3 185/3/3 184/3/3
f 192/4/3 184/4/3 191/4/3
f 193/4/3 186/4/3 185/4/3
f 193/3/3 185/3/3 192/3/3
f 194/3/3 187/3/3 186/3/3
f 194/4/3 186/4/3 193/4/3
f 195/1/3 188/1/3 187/1/3
f 195/3/3 187/3/3 194/3/3
f 196/3/3 189/3/3 188/3/3
f 196/1/3 188/1/3 195/1/3
f 197/3/3 189/3/3 196/3/3
f 198/7/3 190/7/3 164/7/3
f 199/7/3 190/7/3 198/7/3
f 208/2/3 201/2/3 200/2/3
f 209/3/3 205/3/3 204/3/3
f 209/1/3 206/1/3 205/1/3
f 210/3/3 207/3/3 206/3/3
f 210/1/3 206/1/3 209/1/3
f 211/2/3 201/2/3 208/2/3
f 212/3/3 207/3/3 210/3/3
f 212/3/3 210/3/3 209/3/3
f 213/3/3 207/3/3 212/3/3
f 214/3/3 212/3/3 209/3/3
f 215/1/3 213/1/3 212/1/3
f 215/3/3 212/3/3 214/3/3
f 216/3/3 214/3/3 209/3/3
f 216/1/3 215/1/3 214/1/3
f 217/1/3 213/1/3 215/1/3
f 217/1/3 215/1/3 216/1/3
f 218/3/3 209/3/3 204/3/3
f 218/3/3 216/3/3 209/3/3
f 218/3/3 217/3/3 216/3/3
f 219/3/3 217/3/3 218/3/3
f 220/3/3 218/3/3 204/3/3
f 220/1/3 219/1/3 218/1/3
f 221/3/3 217/3/3 219/3/3
f 221/1/3 219/1/3 220/1/3
f 222/2/3 201/2/3 211/2/3
f 223/4/3 202/4/3 201/4/3
f 223/2/3 201/2/3 222/2/3
f 224/3/3 203/3/3 202/3/3
f 224/4/3 202/4/3 223/4/3
f 225/4/3 204/4/3 203/4/3
f 225/3/3 203/3/3 224/3/3
f 226/3/3 220/3/3 204/3/3
f 226/4/3 204/4/3 225/4/3
f 226/3/3 221/3/3 220/3/3
f 227/3/3 217/3/3 221/3/3
f 227/3/3 221/3/3 226/3/3
f 228/2/4 229/2/4 233/2/4
f 233/2/4 229/2/4 234/2/4
f 231/3/4 232/3/4 235/3/4
f 235/3/4 232/3/4 236/3/4
f 231/3/4 235/3/4 237/3/4
f 235/1/4 236/1/4 237/1/4
f 236/3/4 232/3/4 238/3/4
f 237/1/4 236/1/4 238/1/4
f 238/3/4 232/3/4 239/3/4
f 239/3/4 232/3/4 240/3/4
f 237/3/4 238/3/4 241/3/4
f 238/3/4 239/3/4 241/3/4
f 239/1/4 240/1/4 242/1/4
f 241/3/4 239/3/4 242/3/4
f 237/3/4 241/3/4 243/3/4
f 241/1/4 242/1/4 243/1/4
f 242/1/4 240/1/4 244/1/4
f 243/1/4 242/1/4 244/1/4
f 231/3/4 237/3/4 245/3/4
f 237/3/4 243/3/4 245/3/4
f 243/3/4 244/3/4 245/3/4
f 245/3/4 244/3/4 246/3/4
f 246/3/4 244/3/4 247/3/4
f 247/3/4 244/3/4 248/3/4
f 231/3/4 245/3/4 249/3/4
f 245/1/4 246/1/4 249/1/4
f 246/3/4 247/3/4 250/3/4
f 249/1/4 246/1/4 250/1/4
f 247/1/4 248/1/4 251/1/4
f 250/3/4 247/3/4 251/3/4
f 251/1/4 248/1/4 252/1/4
f 249/3/4 250/3/4 253/3/4
f 250/3/4 251/3/4 253/3/4
f 251/3/4 252/3/4 253/3/4
f 253/3/4 252/3/4 254/3/4
f 249/3/4 253/3/4 255/3/4
f 253/1/4 254/1/4 255/1/4
f 254/3/4 252/3/4 256/3/4
f 255/1/4 254/1/4 256/1/4
f 234/2/4 229/2/4 257/2/4
f 229/3/4 230/3/4 258/3/4
f 257/2/4 229/2/4 258/2/4
f 230/4/4 231/4/4 259/4/4
f 258/3/4 230/3/4 259/3/4
f 231/3/4 249/3/4 260/3/4
f 259/4/4 231/4/4 260/4/4
f 249/3/4 255/3/4 260/3/4
f 255/3/4 256/3/4 260/3/4
f 256/3/4 252/3/4 261/3/4
f 260/3/4 256/3/4 261/3/4
f 262/7/4 263/7/4 264/7/4
f 262/7/4 264/7/4 269/7/4
f 264/2/4 265/2/4 269/2/4
f 265/3/4 266/3/4 270/3/4
f 269/2/4 265/2/4 270/2/4
f 266/4/4 267/4/4 271/4/4
f 270/3/4 266/3/4 271/3/4
f 267/3/4 268/3/4 272/3/4
f 271/4/4 267/4/4 272/4/4
f 272/3/4 268/3/4 273/3/4
f 270/9/4 271/9/4 274/9/4
f 269/9/4 270/9/4 274/9/4
f 272/9/4 273/9/4 274/9/4
f 271/9/4 272/9/4 274/9/4
f 262/7/4 269/7/4 274/7/4
f 274/9/4 273/9/4 275/9/4
f 275/9/4 273/9/4 276/9/4
f 276/9/4 273/9/4 277/9/4
f 277/9/4 273/9/4 278/9/4
f 278/9/4 273/9/4 279/9/4
f 279/9/4 273/9/4 280/9/4
f 280/9/4 273/9/4 281/9/4
f 262/7/4 274/7/4 282/7/4
f 274/2/4 275/2/4 282/2/4
f 275/4/4 276/4/4 283/4/4
f 282/2/4 275/2/4 283/2/4
f 276/3/4 277/3/4 284/3/4
f 283/4/4 276/4/4 284/4/4
f 277/4/4 278/4/4 285/4/4
f 284/3/4 277/3/4 285/3/4
f 278/3/4 279/3/4 286/3/4
f 285/4/4 278/4/4 286/4/4
f 279/1/4 280/1/4 287/1/4
f 286/3/4 279/3/4 287/3/4
f 280/3/4 281/3/4 288/3/4
f 287/1/4 280/1/4 288/1/4
f 288/3/4 281/3/4 289/3/4
f 262/7/4 282/7/4 290/7/4
f 290/7/4 282/7/4 291/7/4
f 294/7/5 293/7/5 292/7/5
f 295/7/5 293/7/5 294/7/5
f 296/7/5 293/7/5 295/7/5
f 297/7/5 294/7/5 292/7/5
f 297/6/5 295/6/5 294/6/5
f 298/5/5 296/5/5 295/5/5
f 298/6/5 295/6/5 297/6/5
f 299/7/5 293/7/5 296/7/5
f 299/5/5 296/5/5 298/5/5
f 300/7/5 298/7/5 297/7/5
f 300/7/5 297/7/5 292/7/5
f 300/7/5 299/7/5 298/7/5
f 301/7/5 293/7/5 299/7/5
f 301/7/5 299/7/5 300/7/5
f 302/7/6 303/7/6 306/7/6
f 306/7/6 303/7/6 307/7/6
f 307/7/6 303/7/6 308/7/6
f 304/7/6 305/7/6 309/7/6
f 309/7/6 305/7/6 310/7/6
f 302/7/6 306/7/6 311/7/6
f 306/6/6 307/6/6 312/6/6
f 311/7/6 306/7/6 312/7/6
f 307/5/6 308/5/6 313/5/6
f 312/6/6 307/6/6 313/6/6
f 313/5/6 308/5/6 314/5/6
f 315/7/6 316/7/6 319/7/6
f 316/6/6 317/6/6 319/6/6
f 317/5/6 318/5/6 320/5/6
f 319/6/6 317/6/6 320/6/6
f 320/5/6 318/5/6 321/5/6
f 309/5/6 310/5/6 322/5/6
f 310/7/6 305/7/6 323/7/6
f 322/5/6 310/5/6 323/5/6
f 320/7/6 321/7/6 324/7/6
f 319/7/6 320/7/6 324/7/6
f 315/7/6 319/7/6 324/7/6
f 324/7/6 321/7/6 325/7/6
f 322/7/6 323/7/6 326/7/6
f 323/7/6 305/7/6 327/7/6
f 326/7/6 323/7/6 327/7/6
f 329/9/6 330/9/6 332/9/6
f 330/3/6 331/3/6 332/3/6
f 332/3/6 331/3/6 333/3/6
f 328/3/6 329/3/6 334/3/6
f 329/9/6 332/9/6 335/9/6
f 334/3/6 329/3/6 335/3/6
f 332/1/6 333/1/6 336/1/6
f 335/9/6 332/9/6 336/9/6
f 336/1/6 333/1/6 337/1/6
f 334/1/6 335/1/6 338/1/6
f 335/9/6 336/9/6 339/9/6
f 338/1/6 335/1/6 339/1/6
f 338/3/6 339/3/6 340/3/6
f 339/9/6 336/9/6 341/9/6
f 340/3/6 339/3/6 341/3/6
f 340/1/6 341/1/6 342/1/6
f 341/9/6 336/9/6 343/9/6
f 342/1/6 341/1/6 343/1/6
f 342/3/6 343/3/6 347/3/6
f 343/9/6 336/9/6 348/9/6
f 347/3/6 343/3/6 348/3/6
f 344/3/6 345/3/6 349/3/6
f 345/1/6 346/1/6 350/1/6
f 349/3/6 345/3/6 350/3/6
f 346/3/6 347/3/6 351/3/6
f 350/1/6 346/1/6 351/1/6
f 347/9/6 348/9/6 352/9/6
f 351/3/6 347/3/6 352/3/6
f 336/3/6 337/3/6 353/3/6
f 352/9/6 348/9/6 353/9/6
f 351/9/6 352/9/6 353/9/6
f 350/9/6 351/9/6 353/9/6
f 349/9/6 350/9/6 353/9/6
f 348/9/6 336/9/6 353/9/6
f 353/3/6 337/3/6 354/3/6
f 349/9/6 353/9/6 355/9/6
f 355/9/6 353/9/6 356/9/6
f 356/9/6 353/9/6 357/9/6
f 357/9/6 353/9/6 358/9/6
f 358/9/6 353/9/6 359/9/6
f 359/9/6 353/9/6 360/9/6
f 355/3/6 356/3/6 361/3/6
f 356/1/6 357/1/6 362/1/6
f 361/3/6 356/3/6 362/3/6
f 357/3/6 358/3/6 363/3/6
f 362/1/6 357/1/6 363/1/6
f 358/1/6 359/1/6 364/1/6
f 363/3/6 358/3/6 364/3/6
f 359/3/6 360/3/6 365/3/6
f 364/1/6 359/1/6 365/1/6
f 360/9/6 353/9/6 366/9/6
f 365/3/6 360/3/6 366/3/6
f 366/9/6 353/9/6 367/9/6
f 353/1/6 354/1/6 368/1/6
f 367/9/6 353/9/6 368/9/6
f 368/1/6 354/1/6 369/1/6
f 366/3/6 367/3/6 370/3/6
f 367/9/6 368/9/6 371/9/6
f 370/3/6 367/3/6 371/3/6
f 370/1/6 371/1/6 372/1/6
f 371/9/6 368/9/6 373/9/6
f 372/1/6 371/1/6 373/1/6
f 368/3/6 369/3/6 374/3/6
f 373/9/6 368/9/6 374/9/6
f 374/3/6 369/3/6 375/3/6
f 373/9/6 374/9/6 376/9/6
f 374/1/6 375/1/6 376/1/6
f 376/1/6 375/1/6 377/1/6
f 373/9/6 376/9/6 378/9/6
f 376/3/6 377/3/6 378/3/6
f 378/3/6 377/3/6 379/3/6
f 373/9/6 378/9/6 380/9/6
f 378/1/6 379/1/6 380/1/6
f 380/1/6 379/1/6 381/1/6
f 372/3/6 373/3/6 382/3/6
f 373/9/6 380/9/6 383/9/6
f 382/3/6 373/3/6 383/3/6
f 380/3/6 381/3/6 384/3/6
f 383/9/6 380/9/6 384/9/6
f 384/3/6 381/3/6 385/3/6
